<svg width="406" height="476" viewBox="0 0 406 476" fill="none" xmlns="http://www.w3.org/2000/svg">
<path d="M70.0931 127.932H56.0581L84.1281 81.4127H0V69.7876H105.165L70.0931 127.932ZM147.254 46.5226H0V58.1514H126.21L84.1242 127.932H98.1592L147.254 46.5226ZM0 313.929L10.5262 319.743L89.7538 188.378H75.7188L0 313.929ZM0 220.887L10.5262 226.701L33.6333 188.385H19.5983L0 220.887ZM0 360.462L10.5262 366.277L117.808 188.385H103.773L0 360.462ZM0 267.41L10.5262 273.224L61.6916 188.385H47.6566L0 267.41ZM189.34 23.2613H0V34.8901H168.295L112.183 127.932H126.218L189.34 23.2613ZM231.429 0H0V11.6288H210.385L140.241 127.932H154.276L231.429 0ZM162.74 188.385H175.328C179.295 202.841 181.297 217.726 181.285 232.673C181.287 255.463 176.599 278.03 167.489 299.085C158.379 320.141 145.026 339.273 128.192 355.388C111.358 371.504 91.3729 384.287 69.3776 393.009C47.3823 401.731 23.8077 406.22 0 406.22L0 394.591C44.8611 394.591 87.8848 377.532 119.606 347.166C151.328 316.801 169.149 275.616 169.149 232.673C169.161 217.698 167.004 202.793 162.74 188.385ZM238.443 58.1402H398.781L405.799 46.5114H231.429L182.326 127.932H196.361L238.443 58.1402ZM193.449 232.673C193.448 281.785 173.066 328.885 136.788 363.612C100.509 398.339 51.3052 417.849 0 417.849L0 429.481C26.9994 429.481 53.7344 424.391 78.6786 414.5C103.623 404.609 126.288 390.113 145.379 371.837C164.471 353.562 179.615 331.866 189.947 307.988C200.279 284.11 205.597 258.518 205.597 232.673C205.613 217.769 203.865 202.912 200.389 188.385H187.87C191.585 202.879 193.458 217.749 193.449 232.673ZM252.47 81.4127H384.75L391.767 69.7801H245.457L210.369 127.932H224.404L252.47 81.4127ZM266.505 104.67H370.723L377.74 93.0414H259.488L238.435 127.932H252.47L266.505 104.67ZM217.753 232.676C217.754 260.05 212.121 287.155 201.178 312.445C190.236 337.734 174.196 360.713 153.976 380.069C133.755 399.425 109.75 414.778 83.3308 425.253C56.9116 435.728 28.5957 441.118 0 441.117L0 452.75C30.1912 452.75 60.0867 447.057 87.9796 435.997C115.873 424.937 141.217 408.726 162.565 388.29C183.913 367.854 200.847 343.593 212.4 316.892C223.952 290.191 229.898 261.573 229.897 232.673C229.9 217.797 228.333 202.959 225.219 188.385H212.813C216.101 202.938 217.756 217.784 217.749 232.673L217.753 232.676ZM242.049 232.676C242.049 263.103 235.787 293.233 223.623 321.343C211.459 349.454 193.629 374.996 171.153 396.511C148.677 418.026 121.993 435.092 92.627 446.736C63.2605 458.379 31.7858 464.372 0 464.371L0 476C67.4152 476 132.069 450.364 179.739 404.732C227.409 359.1 254.189 297.21 254.189 232.676C254.194 217.822 252.784 202.999 249.979 188.389H237.624C240.57 202.982 242.05 217.81 242.045 232.673L242.049 232.676ZM356.692 127.932L363.709 116.303H273.515L266.497 127.932H356.692Z" fill="url(#paint0_linear_1_509)"/>
<path d="M266.308 139.703H352.829V147.834H337.404V176.858H320.392V147.823H283.308V155.111H302.016V163.242H283.308V176.847H266.308V139.703ZM229.805 168.783V162.34H251.989V154.202H229.797V147.823H258.291V139.703H212.789V176.858H258.642V168.783H229.805ZM191.919 139.703V158.276L164.707 139.703H151.503V176.858H163.148V156.401L191.089 176.847H203.56V139.703H191.919Z" fill="#00A867"/>
<path d="M50.3936 139.55H3.23535V147.685H18.2987V176.709H35.3107V147.67H50.3936V139.55ZM63.2549 162.628H78.6612L71.1276 148.233L63.2549 162.613V162.628ZM83.9616 139.55L105.206 176.709H86.3663L82.886 170.33H59.0418L55.5342 176.709H44.4968L65.7297 139.55H83.9616ZM145.723 139.55H99.5706V147.685H114.634V176.709H131.646V147.67H145.723V139.55Z" fill="#E73439"/>
<defs>
<linearGradient id="paint0_linear_1_509" x1="353.666" y1="1.05589e-05" x2="17.4676" y2="387.879" gradientUnits="userSpaceOnUse">
<stop stop-color="#A2A1A1"/>
<stop offset="0.234" stop-color="#E8E3E3"/>
<stop offset="0.504" stop-color="#BDBDBD"/>
<stop offset="0.764" stop-color="#DBD1D1"/>
<stop offset="1" stop-color="#ADABAB"/>
</linearGradient>
</defs>
</svg>
