<svg width="215" height="522" viewBox="0 0 215 522" fill="none" xmlns="http://www.w3.org/2000/svg">
<path d="M112.068 159.597C111.686 160.17 111.323 160.714 111.185 161.129C105.35 174.092 103.898 182.873 107.203 185.206L107.321 185.295L107.449 185.226C109.283 184.257 112.029 173.648 114.206 164.501C114.403 163.661 114.559 163.028 114.638 162.702C114.932 161.752 114.854 160.714 114.795 159.874C114.756 159.369 114.716 158.895 114.795 158.667C125.996 126.65 147.054 97.3325 151.752 91.0141C154.351 95.4736 158.451 99.5573 163.63 102.85C168.995 106.261 175.37 108.753 181.579 109.861C187.581 110.928 192.848 110.553 196.036 108.842C197.203 108.219 198.096 107.408 198.694 106.459C198.763 106.36 198.782 106.232 198.753 106.113C198.723 105.994 198.655 105.895 198.557 105.836C198.458 105.767 198.341 105.747 198.223 105.777C198.105 105.806 198.007 105.876 197.939 105.975C197.429 106.795 196.644 107.487 195.624 108.041C192.603 109.663 187.542 109.999 181.736 108.971C175.635 107.883 169.377 105.441 164.1 102.089C160.599 99.8638 157.666 97.3325 155.332 94.5441C159.147 97.7676 164.346 100.289 170.819 102.069C183.942 105.668 198.743 105.075 201.47 103.859C201.695 103.76 201.793 103.493 201.705 103.265C201.656 103.157 201.577 103.068 201.46 103.018C201.352 102.969 201.224 102.979 201.116 103.018C198.9 104.007 184.698 104.926 171.054 101.179C164.454 99.3694 159.236 96.7887 155.489 93.4762C174.889 106.686 204.235 98.4202 205.53 98.0444C205.766 97.9752 205.903 97.728 205.844 97.4907C205.815 97.3721 205.746 97.2732 205.638 97.2139C205.53 97.1545 205.412 97.1348 205.295 97.1743C204 97.55 174.311 105.925 155.263 92.2205C177.852 102.672 205.815 92.8632 207.031 92.4182C207.256 92.3391 207.384 92.082 207.315 91.8447C207.276 91.7261 207.198 91.6371 207.09 91.5876C206.982 91.5382 206.864 91.5283 206.746 91.5679C205.55 91.993 178.42 101.545 156.244 91.6667C162.325 93.3378 169.691 94.0695 177.773 93.8025C188.513 93.4367 199.881 91.3108 207.453 88.2455C207.678 88.1565 207.786 87.8896 207.708 87.6621C207.668 87.5534 207.58 87.4545 207.472 87.4149C207.364 87.3655 207.247 87.3655 207.129 87.4149C199.655 90.4406 188.395 92.5468 177.753 92.9027C171.653 93.1104 165.935 92.7346 160.913 91.8052C167.112 92.4874 173.84 92.4479 180.686 91.6766C191.397 90.4703 201.273 87.5929 207.776 83.7861C207.992 83.6575 208.061 83.3906 207.943 83.173C207.884 83.0643 207.786 82.9851 207.678 82.9555C207.56 82.9258 207.443 82.9357 207.335 83.0049C200.94 86.7524 191.191 89.5804 180.598 90.7768C172.467 91.6964 164.542 91.5679 157.47 90.4209C168.946 90.7669 178.234 90.2923 185.786 88.9871C196.654 87.0985 203.98 83.3807 207.551 77.9126C207.688 77.705 207.629 77.4281 207.433 77.2897C207.335 77.2205 207.217 77.2007 207.099 77.2304C206.982 77.2501 206.884 77.3293 206.815 77.4281C203.392 82.6687 196.271 86.258 185.649 88.1071C179.107 89.2442 171.26 89.7485 161.805 89.6199C170.142 89.0464 178.479 88.2356 185.433 86.5843C195.496 84.2014 202.205 80.2066 206.58 74.0168C206.717 73.819 206.678 73.5323 206.482 73.384C206.285 73.2455 206.001 73.295 205.864 73.4927C201.636 79.4947 195.084 83.3708 185.247 85.7043C179.431 87.0886 172.8 87.8698 165.209 88.4631C176.792 87.2172 189.082 84.8737 205.079 72.326C205.275 72.1776 205.314 71.8909 205.167 71.6931C205.099 71.5943 204.991 71.5349 204.873 71.5152C204.755 71.4954 204.638 71.5349 204.54 71.6041C187.954 84.6068 175.39 86.5349 163.424 87.7313C175.027 85.289 185.129 81.8085 204.412 69.6958C204.618 69.5672 204.687 69.2904 204.569 69.0827C204.51 68.974 204.412 68.9047 204.294 68.8751C204.177 68.8454 204.059 68.8652 203.951 68.9245C182.746 82.2534 172.585 85.0616 160.697 87.3655C168.004 85.1605 174.929 82.56 181.353 79.6035C190.122 75.5593 197.713 70.912 202.715 66.5119C202.902 66.3537 202.921 66.0669 202.764 65.879C202.686 65.79 202.578 65.7307 202.46 65.7208C202.342 65.7011 202.225 65.7505 202.137 65.8296C197.193 70.1704 189.68 74.7683 180.99 78.7828C175.939 81.1064 170.554 83.2225 164.915 85.0913C170.221 82.8566 175.243 80.3451 179.892 77.5962C188.023 72.8006 194.506 67.56 198.645 62.4479C198.802 62.2502 198.772 61.9733 198.586 61.8151C198.498 61.736 198.38 61.7063 198.262 61.7162C198.145 61.7261 198.037 61.7854 197.958 61.8843C193.878 66.9173 187.473 72.0886 179.44 76.825C173.742 80.1869 167.337 83.262 160.628 85.8428C165.886 83.3312 171.054 80.3846 176.066 77.0227C187.336 69.4782 194.339 62.2205 195.614 60.4308C195.761 60.2231 195.712 59.9463 195.516 59.798C195.418 59.7288 195.31 59.6991 195.192 59.7189C195.075 59.7386 194.967 59.798 194.898 59.9067C193.701 61.5877 186.61 68.885 175.586 76.2712C169.868 80.1078 163.934 83.4103 157.912 86.1196C162.413 83.2126 167.063 79.643 171.77 75.5C182.265 66.2548 189.464 57.326 190.445 55.9417C190.592 55.734 190.543 55.4572 190.347 55.3088C190.249 55.2396 190.141 55.21 190.014 55.2297C189.896 55.2495 189.788 55.3187 189.719 55.4176C188.748 56.7822 181.618 65.622 171.182 74.8177C165.768 79.5837 160.462 83.5586 155.361 86.6635C166.062 77.9028 180.578 65.968 187.11 53.707C187.228 53.4895 187.15 53.2126 186.934 53.094C186.718 52.9753 186.453 53.0643 186.336 53.2818C180.264 64.6826 167.092 75.8757 156.686 84.4189C157.294 83.7663 157.892 83.1137 158.48 82.4809L158.765 82.1743C167.063 73.2258 174.223 65.5033 184.639 50.3155C184.776 50.1078 184.727 49.8309 184.531 49.6925C184.433 49.6233 184.315 49.5936 184.197 49.6233C184.08 49.6431 183.972 49.7123 183.903 49.8112C173.526 64.9397 166.386 72.6424 158.108 81.5613L157.951 81.7294C156.803 82.9654 155.636 84.231 154.41 85.5659C165.709 65.7505 181.647 49.8804 182.344 49.1981C182.52 49.03 182.52 48.7433 182.353 48.5653C182.275 48.4763 182.157 48.4269 182.04 48.4269C181.922 48.4269 181.814 48.4763 181.726 48.5554C181.588 48.6839 169.819 60.3912 159.304 76.024C168.759 59.6595 179.627 46.2219 180.147 45.5791C180.304 45.3913 180.274 45.1045 180.088 44.9463C180 44.8672 179.882 44.8277 179.764 44.8474C179.646 44.8573 179.539 44.9166 179.46 45.0155C179.293 45.2133 163.904 64.119 153.576 84.7353C157.088 73.997 159.805 66.502 162.688 60.9351C166.042 54.4585 169.466 51.0373 173.811 49.8211C174.046 49.7518 174.183 49.5046 174.124 49.2673C174.095 49.1487 174.026 49.0498 173.918 48.9905C173.82 48.9311 173.693 48.9114 173.575 48.9509C168.975 50.2363 165.376 53.8158 161.903 60.5297C159.069 66.0076 156.391 73.3642 153.135 83.262C154.538 75.3022 156.715 68.173 159.599 62.0129C164.051 52.5106 169.397 47.1217 173.095 44.264C173.291 44.1157 173.33 43.829 173.193 43.6312C173.124 43.5323 173.016 43.473 172.898 43.4532C172.781 43.4335 172.663 43.4631 172.565 43.5422C168.789 46.4592 163.345 51.9568 158.804 61.6272C156.097 67.3919 154.018 73.997 152.595 81.324C154.694 56.6338 167.19 40.8824 167.759 40.1803C167.916 39.9826 167.886 39.7057 167.7 39.5475C167.612 39.4684 167.494 39.4387 167.376 39.4486C167.259 39.4585 167.151 39.5178 167.072 39.6167C166.503 40.3286 153.606 56.5745 151.664 81.9568C149.908 53.8059 162.07 37.7479 162.619 37.0459C162.767 36.8481 162.737 36.5712 162.541 36.413C162.453 36.3438 162.335 36.3043 162.217 36.324C162.1 36.3438 161.992 36.4031 161.913 36.502C161.374 37.2041 149.28 53.1632 150.722 81.0768C149.526 73.8388 148.986 66.7294 149.114 59.8968C149.349 47.181 151.791 38.5983 153.233 34.6134C153.272 34.4948 153.272 34.3761 153.223 34.2674C153.174 34.1586 153.086 34.0795 152.968 34.0399C152.743 33.9608 152.488 34.0795 152.399 34.3168C150.938 38.3511 148.456 47.0524 148.221 59.8968C148.084 67.4314 148.751 75.2825 150.192 83.2818C147.397 75.0353 145.671 66.9469 145.033 59.2146C143.974 46.2317 146.25 37.56 147.691 33.5554C147.731 33.4368 147.731 33.3181 147.672 33.2093C147.623 33.1006 147.534 33.0215 147.427 32.9819C147.201 32.9028 146.946 33.0215 146.858 33.2588C145.387 37.3326 143.072 46.1427 144.141 59.3036C144.818 67.5896 146.74 76.2614 149.869 85.1012C137.785 63.4169 141.728 36.3933 141.905 35.2166C141.924 35.0979 141.895 34.9793 141.816 34.8804C141.748 34.7815 141.64 34.7222 141.522 34.7123C141.287 34.6826 141.061 34.8507 141.022 35.0979C140.983 35.3748 137.118 61.2119 147.662 82.8269C133.597 61.4591 136.961 38.3214 137.118 37.2931C137.138 37.1744 137.118 37.0557 137.04 36.9569C136.971 36.858 136.863 36.7987 136.746 36.7789C136.51 36.7492 136.285 36.9173 136.245 37.1645C136.079 38.2522 132.499 62.9522 148.113 85.0715C130.027 65.0188 131.881 38.796 131.9 38.5192C131.9 38.4005 131.871 38.2819 131.792 38.1929C131.714 38.1039 131.606 38.0544 131.488 38.0445C131.243 38.0347 131.037 38.2225 131.018 38.4697C130.939 39.4981 129.409 62.4282 144.337 81.9469C127.153 63.585 125.78 41.3965 125.721 40.3979C125.721 40.2792 125.662 40.1606 125.564 40.0815C125.476 40.0023 125.368 39.9628 125.241 39.9727C124.995 39.9925 124.809 40.21 124.829 40.4572C124.887 41.6042 126.506 67.916 148.417 87.1578C142.866 83.5685 137.569 78.2093 132.969 71.525C127.487 63.5356 123.083 53.8553 120.238 43.5323C120.209 43.4137 120.13 43.3148 120.023 43.2555C119.915 43.1961 119.797 43.1863 119.679 43.2258C119.454 43.295 119.316 43.5422 119.375 43.7795C122.249 54.2113 126.692 63.9806 132.234 72.0491C133.607 74.0465 135.029 75.9252 136.51 77.6753C134.441 75.6384 132.42 73.4235 130.449 71.0702C123.828 63.1203 118.316 53.9641 114.491 44.6101C114.442 44.5014 114.353 44.4124 114.246 44.3629C114.138 44.3135 114.01 44.3234 113.902 44.3629C113.677 44.4618 113.579 44.7288 113.667 44.9562C117.522 54.3992 123.083 63.6345 129.762 71.6536C134.029 76.7755 138.658 81.2646 143.297 84.7847C127.418 76.1031 113.892 66.5316 116.021 55.299C116.04 55.1803 116.021 55.0617 115.952 54.9628C115.884 54.8639 115.785 54.7947 115.668 54.7749C115.432 54.7354 115.197 54.8936 115.148 55.1408C112.872 67.1546 127.173 77.0821 143.66 86.0207C141.11 85.2594 138.501 84.6562 135.941 84.053C125.348 81.591 115.344 79.2673 110.185 66.6107C110.136 66.502 110.058 66.413 109.94 66.3635C109.832 66.3141 109.704 66.324 109.597 66.3635C109.371 66.4624 109.273 66.7195 109.361 66.9568C114.697 80.0385 124.907 82.4116 135.735 84.9232C140.649 86.0603 145.73 87.2468 150.3 89.531C145.642 95.7702 124.191 125.474 112.774 158.212C112.647 158.578 112.294 159.102 111.96 159.607L112.068 159.597Z" fill="#00A867" fill-opacity="0.3"/>
<path d="M43.4919 81.0897C43.2741 82.1557 43.1454 82.8367 43.2246 83.1722C43.2246 87.7123 44.9277 93.3479 46.8983 95.2429C47.3835 95.7067 47.8687 95.9436 48.344 95.9436C48.3638 95.9436 48.3836 95.9436 48.4034 95.9436H48.5519L48.6113 95.7956C48.7797 95.4205 48.6311 94.7593 48.4232 93.8414C48.2548 93.1308 48.0766 92.3116 47.9974 91.4628C47.8984 90.3278 47.8092 89.1039 47.73 87.9492C47.5518 85.3337 47.3934 83.0834 47.0765 82.3333C46.8587 81.7411 46.3932 80.843 46.017 80.1225C45.7595 79.629 45.512 79.175 45.4724 79.027C41.7987 61.0444 39.6994 31.9979 39.4123 27.9217C43.5811 29.9845 48.8589 29.9944 52.6118 29.6292C59.5432 28.9482 66.5341 26.4314 68.7126 24.5068C68.8809 24.3588 68.9007 24.1022 68.7522 23.9245C68.6829 23.8357 68.5739 23.7863 68.465 23.7765C68.3561 23.7765 68.2472 23.8061 68.168 23.8752C66.0984 25.7109 59.3155 28.129 52.5425 28.7903C48.542 29.1851 44.9971 28.9383 42.1353 28.0797C46.0566 28.4251 50.4828 27.8132 55.315 26.2834C64.0982 23.4902 71.505 18.4271 72.4556 16.7098C72.5645 16.5124 72.4952 16.2558 72.2971 16.1472C72.1981 16.088 72.0892 16.0781 71.9803 16.1077C71.8713 16.1373 71.7822 16.2064 71.7228 16.3051C70.9306 17.7461 63.811 22.7007 55.0576 25.4839C50.5818 26.9052 46.4725 27.5171 42.8087 27.2901C58.7511 25.5826 70.9207 14.5977 71.4555 14.114C71.6238 13.966 71.6436 13.6995 71.4951 13.5317C71.4158 13.4429 71.3168 13.3936 71.2079 13.3837C71.099 13.3738 70.9901 13.4133 70.9009 13.4923C70.4058 13.9463 59.7215 23.5297 45.4724 26.0662C60.5532 21.7927 69.584 10.2451 69.9899 9.70229C70.1286 9.52464 70.0989 9.25816 69.9305 9.11998C69.8414 9.05089 69.7325 9.01142 69.6236 9.03116C69.5146 9.04103 69.4156 9.10024 69.3364 9.18907C68.9601 9.68256 60.781 20.1839 46.9676 24.7338C49.8293 23.4606 52.6514 21.842 55.4042 19.8977C60.8404 16.0584 65.5241 11.242 68.2373 6.69204C68.3561 6.49465 68.2868 6.23803 68.0986 6.1196C67.9996 6.06038 67.8907 6.04064 67.7818 6.07025C67.6729 6.09986 67.5837 6.16895 67.5243 6.25777C64.8607 10.709 60.2661 15.4267 54.919 19.2068C52.6316 20.8156 50.2947 22.2072 47.9182 23.3521C49.8194 22.1874 51.7107 20.8254 53.5822 19.2759C58.553 15.18 63.2565 9.81086 66.1875 4.90563C66.3064 4.70823 66.2371 4.45162 66.0489 4.33318C65.9499 4.27397 65.841 4.25423 65.732 4.28384C65.6231 4.31345 65.534 4.37266 65.4746 4.47136C62.5931 9.28777 57.9589 14.5779 53.0574 18.6245C51.0868 20.253 49.0965 21.6644 47.1161 22.8586C49.6312 21.1807 51.9285 19.2956 53.9783 17.223C57.9985 13.1567 61.0583 8.36002 62.8109 3.34622C62.8901 3.12908 62.7713 2.89221 62.5634 2.81325C62.4644 2.77377 62.3455 2.77377 62.2465 2.82312C62.1475 2.87247 62.0683 2.95143 62.0287 3.05999C60.3156 7.95536 57.3252 12.6533 53.3841 16.6308C50.8393 19.2068 47.9083 21.4768 44.6307 23.431C46.4032 22.0591 48.0073 20.5886 49.5124 18.9601C53.4237 14.7358 56.7409 9.38646 59.6522 2.62573C59.7413 2.41847 59.6522 2.17172 59.4442 2.07303C59.3452 2.02368 59.2264 2.02368 59.1273 2.07303C59.0184 2.1125 58.9392 2.19146 58.8996 2.30003C56.028 8.97194 52.7603 14.2423 48.9084 18.3975C47.2745 20.1642 45.6605 21.5953 44.1554 22.7599C46.314 20.6675 48.2053 18.2988 49.7996 15.6932C54.0278 8.76467 54.6021 2.81325 54.6714 1.14528C54.6714 0.918273 54.513 0.720879 54.2753 0.71101C54.1664 0.71101 54.0575 0.740619 53.9783 0.819576C53.899 0.898534 53.8495 0.99723 53.8396 1.11567C53.7703 2.72443 53.2158 8.50806 49.0866 15.2589C47.1557 18.4271 44.7693 21.2301 41.9769 23.6186C44.1851 20.6379 45.9774 17.5586 47.3141 14.42C49.2253 9.94904 50.2155 5.38924 50.2551 0.868925C50.2551 0.641922 50.0669 0.454398 49.8491 0.444528C49.7402 0.444528 49.6312 0.484007 49.552 0.562964C49.4728 0.641922 49.4233 0.750488 49.4233 0.859055C49.3837 5.2708 48.4133 9.72203 46.5517 14.0943C45.0466 17.6277 42.9572 21.082 40.3332 24.3983C41.9175 20.8649 43.1454 17.4796 43.9969 14.2917C45.3337 9.2779 45.7793 4.61941 45.304 0.434658C45.2743 0.207656 45.0664 0.0398709 44.8485 0.0694799C44.7396 0.0793496 44.6406 0.138568 44.5713 0.227395C44.502 0.316222 44.4722 0.424789 44.4821 0.533355C44.9376 4.60954 44.502 9.15946 43.1949 14.0746C42.3631 17.2033 41.155 20.5293 39.6004 24.0035C39.8282 22.5921 40.046 21.2893 40.254 20.0161L40.2738 19.9075C41.3828 13.2949 42.1849 8.5278 41.6898 0.464267C41.6898 0.355701 41.6303 0.247134 41.5511 0.178047C41.4719 0.108959 41.363 0.0694799 41.2541 0.0694799C41.1451 0.0694799 41.0461 0.128698 40.9669 0.207656C40.8877 0.286613 40.858 0.39518 40.858 0.513616C41.3531 8.49819 40.551 13.2356 39.4519 19.7891V19.8483C39.2142 21.2301 38.9766 22.6415 38.729 24.1713C37.7982 18.4863 37.5111 13.1863 37.1546 6.60321V6.53412C37.0457 4.60954 36.9367 2.58625 36.7981 0.39518C36.7783 0.168177 36.5902 -0.00947754 36.3624 0.000392148C36.2535 0.000392148 36.1545 0.0497406 36.0753 0.138568C35.996 0.217525 35.9663 0.326092 35.9663 0.444528C36.105 2.62573 36.2139 4.68849 36.3228 6.66243C36.6496 12.6139 36.9169 17.5191 37.6497 22.6118C32.8472 8.2021 32.5996 1.32293 32.5996 1.24397C32.5996 1.01697 32.4115 0.859055 32.1639 0.839316C31.9362 0.839316 31.758 1.04658 31.7679 1.27358C31.7778 1.59928 32.1243 9.20881 37.5507 24.8917C34.3721 21.2202 31.8471 17.5487 30.0251 13.966C27.9753 9.9293 26.8861 6.08999 26.7871 2.54677C26.7871 2.31977 26.5891 2.14211 26.3712 2.14211C26.1435 2.14211 25.9652 2.33951 25.9652 2.56651C26.0741 6.22816 27.1931 10.1958 29.2923 14.341C30.8569 17.4303 32.9363 20.5787 35.5009 23.7271C30.8569 19.799 27.302 16.1669 24.8958 12.9198C22.0143 9.02129 20.8953 5.7939 21.5687 3.32648C21.6281 3.10934 21.4994 2.87247 21.2815 2.81325C21.1726 2.78364 21.0637 2.79351 20.9647 2.85273C20.8656 2.91195 20.7963 3.00078 20.7666 3.10934C20.024 5.84325 21.1825 9.31738 24.2225 13.433C26.5792 16.6209 30.0053 20.1444 34.4513 23.9541C29.7082 20.9241 25.688 17.9534 22.45 15.1109C15.9443 9.39633 14.7362 6.0209 14.5679 5.39911C14.5085 5.18198 14.2807 5.0438 14.053 5.11289C13.8352 5.17211 13.7064 5.40898 13.7658 5.62611C14.0332 6.55386 15.3898 10.0181 21.9054 15.7425C25.1433 18.585 29.1636 21.5459 33.877 24.5759C28.6289 22.3848 24.4997 20.3616 21.0538 18.3087C16.0136 15.2984 12.2706 12.1006 9.62676 8.51793C9.55745 8.4291 9.45843 8.36989 9.3495 8.35015C9.24058 8.34028 9.13166 8.36989 9.04254 8.4291C8.8643 8.56728 8.83459 8.82389 8.96332 9.01142C11.6765 12.6829 15.4987 15.9597 20.6379 19.0193C24.2324 21.161 28.5299 23.2534 34.0453 25.5431C17.3306 22.069 7.28987 10.6399 7.18094 10.5116C7.10173 10.4327 7.00271 10.3833 6.89378 10.3734C6.78486 10.3734 6.67594 10.403 6.59672 10.482C6.42838 10.6399 6.41848 10.8965 6.56701 11.0643C6.9829 11.5479 16.2315 21.921 31.758 25.8491C14.8551 23.51 4.24992 13.7291 3.76472 13.2751C3.6855 13.1962 3.55678 13.1567 3.45776 13.1666C3.34883 13.1666 3.23991 13.2258 3.17059 13.3047C3.02206 13.4725 3.03197 13.739 3.2003 13.887C3.62609 14.2818 11.6468 21.6841 24.7968 25.2767C23.7373 25.0299 22.6678 24.7437 21.5885 24.4377C15.37 22.6513 8.94352 19.8779 3.00226 16.4137C2.90324 16.3545 2.79431 16.3347 2.68539 16.3742C2.57647 16.4038 2.48735 16.4729 2.42794 16.5716C2.31901 16.769 2.38833 17.0256 2.58637 17.1342C8.57714 20.628 15.0729 23.431 21.3607 25.2372C24.3809 26.1057 27.2624 26.7275 29.9954 27.1025C26.8069 26.9545 23.4105 26.4808 19.9546 25.7011C13.1717 24.1713 6.4878 21.5459 0.615853 18.131C0.516833 18.0718 0.407909 18.0619 0.298986 18.0915C0.190063 18.1211 0.100944 18.1902 0.0514339 18.2889C-0.0574892 18.4863 0.0118255 18.7429 0.209867 18.8515C6.15113 22.3158 12.9143 24.9608 19.7863 26.5202C23.8957 27.448 27.9258 27.9415 31.6391 27.9908C27.6387 28.4547 23.4105 28.4053 19.1922 27.8428C12.5776 26.9545 6.21054 24.8128 0.774287 21.6446C0.675266 21.5854 0.566343 21.5755 0.45742 21.6051C0.348497 21.6347 0.259378 21.7038 0.209867 21.8025C0.100944 21.9999 0.170259 22.2467 0.368301 22.3651C5.89367 25.5925 12.3696 27.7638 19.0932 28.6718C22.9649 29.1949 26.8663 29.2838 30.5895 28.9383C26.8564 29.6687 22.9748 29.9352 19.1427 29.718C12.6964 29.3528 6.58682 27.5862 1.47734 24.6055C1.37831 24.5463 1.26939 24.5364 1.16047 24.566C1.05155 24.5956 0.962427 24.6647 0.912916 24.7634C0.803993 24.9608 0.873308 25.2174 1.07135 25.326C6.28976 28.3659 12.5281 30.172 19.1031 30.5471C23.8165 30.8136 28.6289 30.3595 33.1343 29.2245C32.2432 29.7279 31.3817 30.2411 30.5301 30.7445C23.8759 34.6726 17.598 38.3737 9.00293 33.3599C8.90391 33.3007 8.79499 33.2908 8.68606 33.3204C8.57714 33.3501 8.48802 33.4191 8.43851 33.5178C8.32959 33.7152 8.3989 33.9719 8.59694 34.0804C17.6079 39.3311 24.0937 35.5115 30.9559 31.465C33.2235 30.1227 35.5604 28.7409 38.0359 27.6849C38.2735 28.9186 38.531 32.1756 38.8875 36.5478C39.6697 46.3386 40.9867 62.7321 43.7791 79.2441C43.8484 79.4514 43.6504 80.3989 43.5117 81.0897H43.4919Z" fill="#00A867" fill-opacity="0.3"/>
<path d="M188.423 499.198C188.497 500.096 188.553 500.667 188.694 500.916C189.75 504.524 192.414 508.607 194.421 509.655C194.914 509.911 195.355 509.987 195.733 509.876C195.749 509.872 195.764 509.867 195.78 509.862L195.898 509.828L195.911 509.696C195.958 509.359 195.686 508.868 195.307 508.187C195.008 507.661 194.676 507.052 194.416 506.395C194.073 505.516 193.718 504.564 193.386 503.665C192.636 501.628 191.987 499.876 191.561 499.353C191.25 498.933 190.671 498.328 190.205 497.842C189.885 497.51 189.583 497.207 189.517 497.098C182.416 483.66 173.994 461.061 172.818 457.888C176.611 458.558 180.808 457.339 183.706 456.176C189.057 454.023 194.028 450.397 195.312 448.361C195.412 448.204 195.368 447.995 195.208 447.889C195.133 447.834 195.035 447.82 194.946 447.838C194.859 447.863 194.78 447.912 194.733 447.985C193.515 449.926 188.686 453.425 183.456 455.525C180.368 456.769 177.493 457.397 175.019 457.38C178.216 456.743 181.592 455.227 185.077 452.888C191.408 448.626 196.118 442.879 196.474 441.293C196.515 441.111 196.4 440.923 196.218 440.883C196.125 440.859 196.036 440.876 195.957 440.925C195.877 440.974 195.822 441.05 195.798 441.142C195.503 442.472 190.997 448.065 184.686 452.312C181.459 454.483 178.335 455.925 175.371 456.596C187.645 451.532 194.763 439.971 195.076 439.463C195.175 439.306 195.129 439.089 194.972 438.991C194.888 438.938 194.798 438.922 194.709 438.94C194.621 438.957 194.543 439.014 194.491 439.097C194.203 439.573 187.939 449.675 177.203 455.004C188.196 448.101 192.689 436.823 192.885 436.297C192.954 436.123 192.869 435.919 192.703 435.848C192.616 435.814 192.52 435.808 192.438 435.849C192.354 435.882 192.289 435.952 192.247 436.041C192.062 436.521 188.003 446.769 178.082 453.597C180.06 451.92 181.927 449.977 183.663 447.792C187.091 443.476 189.694 438.559 190.792 434.312C190.841 434.127 190.726 433.939 190.549 433.889C190.457 433.865 190.365 433.875 190.286 433.924C190.206 433.972 190.151 434.048 190.125 434.132C189.043 438.29 186.488 443.108 183.117 447.355C181.673 449.166 180.139 450.815 178.516 452.278C179.756 450.91 180.943 449.388 182.07 447.721C185.069 443.31 187.559 437.949 188.748 433.369C188.796 433.184 188.682 432.996 188.505 432.946C188.412 432.922 188.321 432.931 188.241 432.98C188.162 433.029 188.105 433.097 188.08 433.189C186.91 437.687 184.457 442.97 181.502 447.326C180.314 449.078 179.06 450.663 177.764 452.072C179.373 450.154 180.76 448.121 181.908 445.997C184.158 441.831 185.474 437.307 185.701 432.914C185.714 432.723 185.564 432.563 185.381 432.548C185.293 432.54 185.198 432.567 185.131 432.63C185.064 432.692 185.019 432.773 185.013 432.869C184.79 437.158 183.505 441.587 181.298 445.665C179.874 448.304 178.072 450.79 175.921 453.105C177.011 451.603 177.944 450.061 178.762 448.416C180.889 444.15 182.281 439.126 183.023 433.076C183.046 432.891 182.918 432.715 182.73 432.685C182.639 432.669 182.545 432.696 182.478 432.759C182.4 432.815 182.356 432.897 182.349 432.992C181.618 438.963 180.247 443.912 178.151 448.11C177.263 449.894 176.313 451.407 175.388 452.682C176.617 450.517 177.569 448.195 178.231 445.753C179.98 439.263 179.053 434.399 178.72 433.057C178.668 432.877 178.496 432.757 178.304 432.804C178.218 432.83 178.138 432.878 178.094 432.96C178.049 433.041 178.033 433.131 178.052 433.227C178.371 434.522 179.275 439.248 177.563 445.574C176.765 448.541 175.52 451.324 173.856 453.871C174.918 450.989 175.626 448.124 175.959 445.319C176.439 441.321 176.165 437.467 175.146 433.865C175.093 433.684 174.9 433.579 174.724 433.622C174.638 433.647 174.56 433.704 174.516 433.785C174.471 433.866 174.457 433.964 174.482 434.05C175.477 437.566 175.74 441.329 175.277 445.237C174.903 448.396 174.045 451.627 172.731 454.873C173.168 451.696 173.357 448.72 173.293 445.988C173.189 441.692 172.46 437.886 171.11 434.671C171.033 434.497 170.829 434.412 170.663 434.486C170.578 434.519 170.514 434.59 170.479 434.676C170.445 434.763 170.446 434.856 170.479 434.94C171.789 438.074 172.501 441.792 172.605 446.002C172.671 448.682 172.484 451.607 172.056 454.73C171.909 453.555 171.779 452.469 171.649 451.409L171.639 451.318C170.983 445.804 170.512 441.828 168.244 435.534C168.219 435.448 168.146 435.376 168.067 435.339C167.988 435.303 167.892 435.297 167.806 435.322C167.719 435.347 167.654 435.417 167.61 435.499C167.565 435.58 167.567 435.673 167.594 435.767C169.844 441.998 170.308 445.95 170.958 451.415L170.972 451.462C171.105 452.615 171.244 453.792 171.403 455.066C169.341 450.764 167.881 446.618 166.067 441.468L166.051 441.413C165.516 439.909 164.959 438.326 164.34 436.617C164.271 436.441 164.08 436.344 163.902 436.404C163.815 436.43 163.748 436.492 163.706 436.581C163.661 436.662 163.663 436.755 163.69 436.85C164.308 438.551 164.874 440.165 165.419 441.709C167.063 446.363 168.416 450.2 170.182 454.077C163.015 443.741 161.218 438.331 161.2 438.268C161.147 438.087 160.961 438.006 160.76 438.047C160.579 438.1 160.485 438.307 160.546 438.485C160.629 438.741 162.674 444.709 170.634 455.912C167.254 453.733 164.393 451.402 162.112 448.978C159.544 446.246 157.786 443.448 156.883 440.655C156.83 440.474 156.632 440.379 156.458 440.43C156.277 440.483 156.182 440.681 156.234 440.862C157.172 443.747 158.984 446.64 161.617 449.447C163.578 451.538 165.963 453.557 168.734 455.463C164.129 453.421 160.459 451.361 157.792 449.339C154.595 446.911 152.955 444.606 152.917 442.488C152.913 442.301 152.756 442.143 152.569 442.147C152.476 442.148 152.391 442.182 152.326 442.252C152.262 442.322 152.227 442.409 152.229 442.502C152.274 444.847 154.003 447.339 157.376 449.904C159.99 451.89 163.533 453.893 167.952 455.888C163.478 454.582 159.592 453.156 156.357 451.649C149.858 448.62 148.113 446.218 147.834 445.763C147.737 445.604 147.523 445.547 147.358 445.655C147.199 445.753 147.152 445.971 147.25 446.13C147.678 446.805 149.561 449.243 156.071 452.278C159.306 453.784 163.19 455.203 167.64 456.516C162.96 455.994 159.207 455.346 155.991 454.516C151.285 453.295 147.567 451.624 144.632 449.391C144.556 449.336 144.464 449.312 144.373 449.322C144.284 449.339 144.204 449.388 144.147 449.456C144.038 449.607 144.074 449.818 144.22 449.937C147.23 452.225 151.03 453.94 155.826 455.177C159.181 456.044 163.083 456.708 167.999 457.245C153.906 458.37 143.268 451.621 143.152 451.544C143.07 451.5 142.98 451.484 142.891 451.501C142.805 451.526 142.725 451.575 142.68 451.656C142.583 451.821 142.635 452.027 142.792 452.126C143.235 452.414 152.998 458.508 166.252 458.02C152.274 460.091 141.57 454.783 141.079 454.535C140.998 454.491 140.886 454.489 140.81 454.52C140.723 454.545 140.65 454.618 140.614 454.697C140.535 454.864 140.604 455.074 140.773 455.152C141.203 455.367 149.299 459.386 160.586 459.184C159.687 459.234 158.77 459.255 157.841 459.263C152.483 459.289 146.73 458.579 141.203 457.207C141.11 457.183 141.019 457.192 140.942 457.249C140.862 457.298 140.807 457.374 140.783 457.466C140.742 457.648 140.857 457.836 141.04 457.876C146.614 459.26 152.428 459.978 157.846 459.951C160.448 459.939 162.883 459.764 165.143 459.426C162.574 460.05 159.764 460.463 156.836 460.647C151.089 461.008 145.166 460.476 139.705 459.127C139.613 459.103 139.524 459.12 139.444 459.169C139.364 459.218 139.31 459.293 139.293 459.383C139.253 459.566 139.367 459.753 139.55 459.794C145.078 461.166 151.068 461.696 156.893 461.337C160.375 461.119 163.693 460.574 166.656 459.75C163.584 461.049 160.212 461.993 156.728 462.526C151.264 463.358 145.706 463.137 140.648 461.882C140.556 461.858 140.467 461.876 140.387 461.925C140.307 461.974 140.253 462.049 140.236 462.139C140.195 462.321 140.308 462.501 140.493 462.55C145.635 463.83 151.287 464.05 156.842 463.208C160.041 462.724 163.163 461.887 166.042 460.747C163.244 462.196 160.221 463.31 157.125 464.028C151.916 465.237 146.649 465.253 141.895 464.072C141.803 464.048 141.714 464.066 141.634 464.115C141.555 464.164 141.5 464.239 141.483 464.329C141.443 464.511 141.558 464.699 141.74 464.739C146.595 465.942 151.973 465.927 157.286 464.697C161.094 463.813 164.814 462.333 168.131 460.383C167.54 460.99 166.974 461.599 166.414 462.197C162.039 466.866 157.91 471.267 149.912 469.281C149.82 469.257 149.731 469.274 149.651 469.323C149.572 469.372 149.517 469.448 149.5 469.538C149.46 469.72 149.575 469.908 149.757 469.948C158.14 472.026 162.407 467.482 166.92 462.67C168.411 461.076 169.947 459.435 171.669 458.02C172.145 458.945 173.106 461.474 174.406 464.866C177.305 472.466 182.163 485.19 188.222 497.665C188.325 497.813 188.388 498.612 188.438 499.194L188.423 499.198Z" fill="#00A867" fill-opacity="0.3"/>
</svg>
