<svg width="241" height="223" viewBox="0 0 241 223" fill="none" xmlns="http://www.w3.org/2000/svg">
<path d="M114.931 178.439C114.444 178.926 113.981 179.389 113.765 179.769C105.506 191.34 102.365 199.667 105.15 202.602L105.248 202.712L105.386 202.669C107.374 202.078 112.143 192.21 116.068 183.667C116.425 182.881 116.703 182.291 116.844 181.986C117.318 181.113 117.444 180.08 117.551 179.244C117.611 178.742 117.665 178.268 117.787 178.061C135.035 148.854 161.423 124.223 167.266 118.946C168.943 123.828 172.164 128.635 176.599 132.877C181.193 137.272 186.957 140.963 192.829 143.264C198.507 145.485 203.745 146.147 207.206 145.093C208.473 144.711 209.506 144.09 210.279 143.276C210.366 143.193 210.41 143.071 210.404 142.949C210.399 142.827 210.351 142.716 210.266 142.639C210.184 142.552 210.072 142.509 209.951 142.515C209.83 142.521 209.72 142.57 209.633 142.654C208.972 143.359 208.067 143.884 206.959 144.227C203.679 145.227 198.65 144.566 193.157 142.422C187.387 140.161 181.728 136.542 177.209 132.222C174.211 129.355 171.83 126.299 170.086 123.108C173.197 127.016 177.802 130.505 183.802 133.517C195.967 139.615 210.598 141.929 213.51 141.269C213.75 141.216 213.899 140.974 213.857 140.734C213.83 140.617 213.77 140.515 213.665 140.443C213.569 140.374 213.442 140.358 213.328 140.376C210.961 140.912 196.853 139.035 184.207 132.691C178.088 129.625 173.475 126.073 170.449 122.091C186.89 138.842 217.286 136.477 218.629 136.362C218.874 136.34 219.057 136.125 219.046 135.88C219.04 135.758 218.992 135.648 218.898 135.569C218.804 135.489 218.692 135.447 218.569 135.463C217.226 135.578 186.472 137.982 170.474 120.816C190.58 135.485 219.922 131.337 221.202 131.138C221.439 131.105 221.614 130.878 221.593 130.631C221.578 130.507 221.518 130.405 221.422 130.335C221.326 130.266 221.212 130.233 221.089 130.249C219.833 130.431 191.359 134.491 171.544 120.465C177.18 123.293 184.261 125.452 192.239 126.771C202.843 128.514 214.407 128.653 222.432 127.129C222.671 127.085 222.829 126.845 222.796 126.606C222.779 126.492 222.712 126.378 222.614 126.318C222.517 126.248 222.402 126.225 222.277 126.251C214.356 127.756 202.901 127.618 192.396 125.885C186.372 124.895 180.838 123.408 176.095 121.514C182.041 123.396 188.647 124.673 195.511 125.257C206.251 126.169 216.5 125.28 223.622 122.819C223.859 122.735 223.978 122.486 223.905 122.25C223.869 122.132 223.788 122.035 223.688 121.985C223.578 121.933 223.461 121.919 223.342 121.966C216.337 124.39 206.223 125.256 195.601 124.357C187.447 123.668 179.7 121.991 172.99 119.483C184.176 122.067 193.378 123.419 201.039 123.617C212.066 123.891 219.979 121.678 224.55 117.015C224.725 116.838 224.721 116.555 224.556 116.381C224.474 116.294 224.362 116.251 224.241 116.257C224.121 116.254 224.01 116.312 223.923 116.396C219.541 120.865 211.856 122.992 201.077 122.727C194.439 122.562 186.645 121.521 177.398 119.546C185.686 120.614 194.02 121.45 201.163 121.191C211.498 120.823 218.859 118.218 224.36 113.004C224.533 112.837 224.551 112.548 224.387 112.364C224.222 112.19 223.933 112.183 223.76 112.35C218.44 117.409 211.257 119.928 201.153 120.292C195.178 120.512 188.523 119.98 180.962 119.077C192.565 120.121 205.076 120.228 223.219 111.052C223.44 110.945 223.535 110.672 223.429 110.449C223.381 110.339 223.287 110.259 223.175 110.217C223.064 110.174 222.941 110.19 222.831 110.239C204.022 119.745 191.323 119.178 179.355 118.01C191.211 117.885 201.799 116.448 223.079 108.342C223.307 108.257 223.428 107.999 223.353 107.772C223.317 107.654 223.234 107.567 223.125 107.515C223.015 107.463 222.896 107.459 222.778 107.496C199.375 116.418 188.861 117.184 176.752 117.118C184.349 116.385 191.649 115.19 198.528 113.547C207.918 111.297 216.272 108.225 222.038 104.888C222.252 104.769 222.327 104.492 222.21 104.277C222.151 104.174 222.056 104.095 221.943 104.062C221.831 104.02 221.706 104.046 221.604 104.106C215.907 107.396 207.64 110.435 198.332 112.671C192.924 113.962 187.229 114.983 181.333 115.713C186.974 114.559 192.39 113.079 197.487 111.293C206.399 108.181 213.782 104.31 218.842 100.106C219.034 99.9431 219.06 99.6658 218.908 99.4742C218.837 99.3794 218.727 99.3273 218.61 99.3139C218.492 99.3006 218.375 99.3377 218.279 99.4193C213.293 103.557 206 107.375 197.196 110.448C190.949 112.63 184.067 114.393 176.983 115.611C182.63 114.177 188.275 112.298 193.848 109.982C206.376 104.788 214.664 99.0409 216.264 97.5352C216.449 97.3604 216.455 97.0793 216.292 96.8954C216.209 96.8084 216.109 96.7582 215.99 96.7545C215.871 96.7509 215.753 96.788 215.665 96.8812C214.162 98.2956 205.78 104.064 193.524 109.151C187.166 111.795 180.7 113.872 174.264 115.351C179.248 113.381 184.506 110.79 189.933 107.648C202.034 100.635 210.841 93.2872 212.074 92.1216C212.258 91.9467 212.264 91.6656 212.101 91.4818C212.018 91.3947 211.918 91.3445 211.79 91.339C211.67 91.3353 211.551 91.3821 211.464 91.4656C210.245 92.6138 201.523 99.8877 189.489 106.864C183.248 110.479 177.266 113.338 171.657 115.385C183.865 108.888 200.436 100.024 209.24 89.2776C209.398 89.0873 209.376 88.8005 209.187 88.6419C208.999 88.4833 208.722 88.5188 208.564 88.7091C200.379 98.7017 185.271 107.101 173.395 113.443C174.119 112.922 174.833 112.399 175.534 111.894L175.873 111.649C185.761 104.497 194.294 98.3244 207.48 85.468C207.655 85.2913 207.661 85.0102 207.496 84.836C207.414 84.749 207.304 84.6968 207.183 84.7029C207.063 84.6993 206.944 84.746 206.857 84.8296C193.721 97.6354 185.212 103.792 175.348 110.919L175.162 111.053C173.794 112.041 172.402 113.054 170.939 114.123C185.896 96.9011 204.632 84.4561 205.448 83.9233C205.654 83.7929 205.71 83.5117 205.581 83.3046C205.522 83.202 205.416 83.1304 205.301 83.1074C205.185 83.0844 205.07 83.1118 204.968 83.1721C204.808 83.2713 190.975 92.4495 177.605 105.723C190.079 91.5247 203.366 80.473 204.001 79.9444C204.192 79.7908 204.219 79.5039 204.068 79.3123C203.996 79.2174 203.889 79.1556 203.769 79.152C203.652 79.1386 203.535 79.1757 203.438 79.2573C203.236 79.4186 184.446 94.9481 170.284 113.145C175.828 103.302 179.959 96.4829 183.876 91.5877C188.433 85.8926 192.459 83.2072 196.958 82.8646C197.202 82.8428 197.385 82.6273 197.374 82.383C197.368 82.2609 197.32 82.1505 197.226 82.0712C197.142 81.9938 197.02 81.9495 196.897 81.9653C192.135 82.3258 187.904 85.1318 183.186 91.0367C179.334 95.8541 175.269 102.545 170.139 111.614C173.072 104.083 176.602 97.5172 180.635 92.0402C186.861 83.5928 193.158 79.3539 197.343 77.2749C197.564 77.1679 197.659 76.8943 197.563 76.6735C197.515 76.5631 197.421 76.4838 197.309 76.4414C197.198 76.399 197.076 76.4051 196.965 76.4634C192.691 78.5852 186.277 82.9116 179.932 91.5066C176.149 96.6302 172.817 102.701 169.989 109.608C176.878 85.8057 192.214 72.8034 192.909 72.2262C193.102 72.063 193.127 71.7857 192.976 71.5941C192.904 71.4993 192.795 71.4472 192.677 71.4338C192.56 71.4205 192.443 71.4576 192.346 71.5392C191.649 72.1261 175.822 85.5345 168.952 110.046C172.738 82.0959 187.807 68.7278 188.483 68.1468C188.665 67.9816 188.691 67.7044 188.529 67.5108C188.456 67.4257 188.349 67.3639 188.229 67.3602C188.11 67.3566 187.993 67.3937 187.896 67.4753C187.23 68.0582 172.248 81.3428 168.2 108.999C168.443 101.667 169.305 94.5893 170.767 87.9137C173.486 75.4897 177.56 67.5506 179.753 63.9249C179.815 63.8162 179.838 63.6999 179.812 63.5836C179.785 63.4673 179.714 63.3725 179.606 63.3107C179.4 63.189 179.127 63.2554 178.994 63.4709C176.771 67.1413 172.635 75.189 169.892 87.7391C168.283 95.1012 167.401 102.931 167.25 111.058C166.122 102.424 166.011 94.154 166.899 86.4463C168.4 73.5072 172.328 65.4482 174.526 61.8031C174.588 61.6944 174.611 61.5781 174.574 61.4599C174.548 61.3436 174.476 61.2488 174.378 61.1889C174.173 61.0672 173.899 61.1336 173.766 61.3491C171.527 65.0563 167.533 73.2433 166.006 86.359C165.049 94.6173 165.237 103.498 166.576 112.779C158.969 89.1494 168.123 63.4194 168.526 62.3C168.568 62.1875 168.563 62.0653 168.505 61.953C168.457 61.8426 168.363 61.7633 168.249 61.7306C168.024 61.6555 167.77 61.7762 167.683 62.0109C167.591 62.2748 158.746 86.8565 164.857 110.117C155.245 86.41 163.071 64.3776 163.426 63.3999C163.468 63.2873 163.472 63.1671 163.415 63.0548C163.367 62.9444 163.272 62.8651 163.161 62.8227C162.936 62.7476 162.682 62.8683 162.595 63.103C162.219 64.137 153.875 87.6593 164.86 112.406C151.047 89.2023 157.995 63.849 158.069 63.5814C158.092 63.465 158.086 63.3429 158.027 63.2403C157.967 63.1376 157.871 63.068 157.758 63.0353C157.519 62.9776 157.28 63.1216 157.213 63.3602C156.935 64.3533 150.948 86.5409 161.768 108.603C148.509 87.234 151.504 65.2057 151.642 64.2148C151.665 64.0984 151.63 63.9706 151.55 63.8738C151.478 63.779 151.38 63.7191 151.253 63.7038C151.009 63.6752 150.784 63.8521 150.755 64.0984C150.588 65.2347 147.027 91.3546 164.75 114.512C160.008 109.906 155.863 103.614 152.66 96.1585C148.846 87.2508 146.421 76.896 145.651 66.216C145.646 66.0939 145.588 65.9815 145.494 65.9023C145.4 65.823 145.286 65.7902 145.163 65.806C144.928 65.8297 144.745 66.0453 144.757 66.2895C145.534 77.0819 147.98 87.5317 151.836 96.5285C152.791 98.756 153.819 100.877 154.929 102.883C153.298 100.48 151.75 97.9129 150.277 95.2193C145.339 86.1277 141.725 76.07 139.804 66.1484C139.777 66.0322 139.708 65.9276 139.612 65.858C139.516 65.7884 139.389 65.7732 139.275 65.7909C139.035 65.8437 138.886 66.0863 138.928 66.3266C140.861 76.3412 144.508 86.4861 149.489 95.6571C152.671 101.515 156.333 106.823 160.194 111.183C146.32 99.562 134.928 87.5292 139.213 76.93C139.256 76.8175 139.26 76.6973 139.212 76.5869C139.164 76.4765 139.081 76.3894 138.97 76.347C138.746 76.2622 138.485 76.3713 138.388 76.6041C133.806 87.9405 145.888 100.474 160.308 112.466C157.956 111.22 155.515 110.118 153.123 109.026C143.217 104.539 133.86 100.303 131.277 86.8814C131.25 86.7652 131.191 86.6625 131.085 86.591C130.989 86.5214 130.862 86.5062 130.748 86.5239C130.508 86.5767 130.361 86.8096 130.401 87.0596C133.074 100.932 142.623 105.257 152.751 109.839C157.347 111.915 162.097 114.073 166.133 117.207C160.343 122.414 133.496 147.347 115.894 177.219C115.698 177.553 115.249 177.998 114.823 178.427L114.931 178.439Z" fill="#00A867" fill-opacity="0.3"/>
<path d="M63.04 88.0318C62.6178 89.0345 62.3583 89.6772 62.3703 90.0218C61.4821 94.4741 62.0497 100.334 63.6114 102.578C63.9964 103.128 64.4259 103.455 64.892 103.548C64.9115 103.552 64.9309 103.556 64.9503 103.56L65.096 103.589L65.1832 103.455C65.4217 103.12 65.4054 102.443 65.381 101.502C65.355 100.772 65.3405 99.9338 65.4288 99.0859C65.5538 97.9534 65.7059 96.7358 65.8541 95.5879C66.191 92.9881 66.4759 90.7503 66.3119 89.9527C66.2142 89.3293 65.9335 88.3575 65.7054 87.5773C65.5495 87.043 65.3956 86.5493 65.3857 86.3964C65.3013 68.0426 68.9257 39.1468 69.4415 35.0932C73.1262 37.9317 78.3001 38.974 82.0519 39.3501C88.9826 40.0384 96.3308 38.9381 98.8437 37.4769C99.0378 37.3647 99.1074 37.1169 98.9965 36.9136C98.9459 36.8129 98.8487 36.7432 98.7438 36.7122C98.637 36.6909 98.5244 36.6987 98.4332 36.7509C96.0445 38.1463 88.9196 39.1905 82.148 38.5139C78.1477 38.1183 74.7195 37.1828 72.0811 35.7808C75.859 36.8868 80.3194 37.1527 85.3575 36.5979C94.5174 35.5772 102.772 32.061 104.04 30.5629C104.185 30.3906 104.168 30.1254 103.995 29.9802C103.909 29.9027 103.804 29.8717 103.692 29.8795C103.579 29.8872 103.478 29.9375 103.4 30.0227C102.342 31.2808 94.3903 34.7467 85.2615 35.7635C80.5941 36.2816 76.4445 36.0777 72.8959 35.1382C88.8642 36.5829 102.948 28.1913 103.567 27.8216C103.761 27.7094 103.833 27.4519 103.72 27.2583C103.659 27.1557 103.572 27.088 103.467 27.057C103.362 27.026 103.248 27.0434 103.145 27.1034C102.57 27.4517 90.2175 34.7596 75.7475 34.4592C91.3731 33.2188 102.489 23.6613 102.993 23.2084C103.164 23.0613 103.187 22.7942 103.049 22.6257C102.975 22.5406 102.876 22.4805 102.765 22.4786C102.656 22.4669 102.547 22.5056 102.452 22.5773C101.987 22.9876 91.9112 31.6857 77.4745 33.4451C80.53 32.7564 83.6143 31.7212 86.6943 30.353C92.7766 27.6515 98.3121 23.8446 101.863 19.9134C102.018 19.7431 102 19.4779 101.839 19.3249C101.754 19.2475 101.651 19.2068 101.538 19.2145C101.425 19.2223 101.325 19.2726 101.249 19.3481C97.7658 23.1921 92.337 26.9197 86.3536 29.5806C83.7957 30.7107 81.2317 31.6182 78.6771 32.276C80.7694 31.5059 82.8907 30.5402 85.0292 29.3868C90.7053 26.3426 96.3684 21.9975 100.202 17.7605C100.358 17.5902 100.34 17.325 100.179 17.172C100.093 17.0946 99.9901 17.0539 99.8774 17.0616C99.7648 17.0693 99.6658 17.11 99.5883 17.1951C95.8201 21.3547 90.2405 25.6359 84.6419 28.6453C82.3909 29.8568 80.1629 30.8515 77.9871 31.6351C80.7819 30.4818 83.4036 29.0826 85.8192 27.4511C90.5574 24.2499 94.4965 20.1446 97.1962 15.5706C97.3164 15.3732 97.2462 15.1176 97.0577 14.9995C96.9684 14.9414 96.8518 14.9182 96.7451 14.9472C96.6383 14.9762 96.5452 15.0381 96.4851 15.1369C93.8473 19.6024 89.9955 23.6245 85.3525 26.7541C82.3528 28.7824 79.0343 30.4351 75.4377 31.7102C77.4443 30.7117 79.3052 29.5834 81.0999 28.2808C85.7621 24.9035 90.0618 20.3065 94.2395 14.246C94.3674 14.0602 94.3283 13.8008 94.1437 13.6633C94.0562 13.5955 93.9397 13.5723 93.8329 13.6013C93.7184 13.6187 93.6253 13.6807 93.5652 13.7794C89.4437 19.7605 85.208 24.2897 80.6176 27.6109C78.6696 29.0238 76.8068 30.1114 75.1029 30.9591C77.6292 29.3295 79.9474 27.3766 82.0206 25.1333C87.5227 19.1659 89.2503 13.4419 89.6446 11.8197C89.689 11.5971 89.5723 11.3725 89.3412 11.3163C89.2343 11.295 89.1217 11.3027 89.0286 11.3647C88.9355 11.4266 88.8676 11.5137 88.8347 11.6279C88.452 13.192 86.7766 18.7554 81.4064 24.5679C78.893 27.2971 76.0043 29.579 72.7986 31.3749C75.5472 28.8839 77.9073 26.2148 79.8323 23.3984C82.5813 19.3878 84.4445 15.1098 85.3677 10.6846C85.4121 10.462 85.2643 10.2413 85.0526 10.189C84.9458 10.1677 84.8312 10.1851 84.7381 10.247C84.645 10.3089 84.5752 10.4057 84.5539 10.5122C83.6519 14.8309 81.8294 19.0063 79.1483 22.9298C76.981 26.1004 74.2562 29.0792 71.034 31.818C73.279 28.6629 75.1455 25.5832 76.6044 22.6236C78.8963 17.9682 80.2447 13.4869 80.5973 9.29006C80.6126 9.06163 80.4415 8.8564 80.2221 8.84282C80.1133 8.83119 80.0046 8.86989 79.9193 8.94344C79.8339 9.01699 79.7835 9.11764 79.772 9.22605C79.4212 13.3126 78.1037 17.6893 75.8603 22.2537C74.4324 25.1592 72.597 28.1846 70.3927 31.2874C70.8921 29.9479 71.3607 28.7129 71.8137 27.505L71.8544 27.4024C74.2358 21.1345 75.955 16.6165 77.0471 8.61196C77.0683 8.50549 77.0313 8.3874 76.9672 8.30415C76.903 8.22089 76.8039 8.16087 76.6971 8.13956C76.5903 8.11825 76.4816 8.15695 76.3884 8.21888C76.2953 8.28081 76.2449 8.38147 76.2218 8.49761C75.1451 16.4247 73.4316 20.9137 71.0716 27.1255L71.06 27.1836C70.5566 28.4921 70.0474 29.8297 69.5053 31.2815C69.7048 25.5243 70.4601 20.2705 71.3985 13.7449L71.412 13.6772C71.6817 11.7685 71.9708 9.763 72.2635 7.58715C72.2885 7.36066 72.1388 7.14963 71.9135 7.11475C71.8067 7.09344 71.6999 7.12246 71.6049 7.19407C71.5117 7.256 71.4613 7.35666 71.4382 7.47281C71.1474 9.63898 70.8506 11.6832 70.5712 13.6403C69.7273 19.5406 69.0297 24.4034 68.7519 29.5411C66.8615 14.4702 67.9647 7.67553 67.9801 7.5981C68.0245 7.37548 67.8709 7.18381 67.632 7.11602C67.4087 7.07146 67.1933 7.23984 67.1586 7.4644C67.1046 7.78574 65.9557 15.316 68.2088 31.7575C65.81 27.5351 64.0521 23.4405 62.9662 19.5705C61.7459 15.2108 61.4289 11.2326 62.025 7.73849C62.0694 7.51587 61.91 7.3029 61.6963 7.26028C61.473 7.21572 61.2596 7.37443 61.2152 7.59704C60.6056 11.2092 60.9266 15.3191 62.1743 19.795C63.1042 23.1306 64.5274 26.625 66.4265 30.2144C62.6407 25.4535 59.8652 21.1962 58.1408 17.541C56.0777 13.1541 55.6118 9.77013 56.7549 7.48213C56.8557 7.28082 56.7758 7.02334 56.5737 6.92265C56.4727 6.8723 56.3639 6.86067 56.2553 6.89937C56.1466 6.93807 56.0612 7.01162 56.0108 7.11227C54.7476 9.64804 55.2041 13.2817 57.38 17.9126C59.0675 21.5 61.738 25.6257 65.3527 30.2316C61.2941 26.3322 57.9328 22.6323 55.3135 19.2112C50.0517 12.3343 49.5274 8.78771 49.4839 8.145C49.4681 7.92044 49.2718 7.74037 49.035 7.76357C48.8097 7.77902 48.6372 7.98613 48.6529 8.21069C48.7336 9.17282 49.3862 12.8355 54.6559 19.7241C57.2751 23.1452 60.6384 26.8354 64.6679 30.729C59.9499 27.5535 56.2964 24.7614 53.3187 22.074C48.9649 18.1358 45.9199 14.2675 44.0281 10.2368C43.9775 10.1361 43.892 10.0587 43.789 10.018C43.6841 9.98702 43.5715 9.99475 43.4725 10.0354C43.2707 10.136 43.1914 10.3819 43.2809 10.5909C45.2233 14.7223 48.3305 18.6836 52.7718 22.6895C55.8778 25.4931 59.6828 28.3859 64.6437 31.7105C48.9317 25.0333 41.3212 11.8606 41.2395 11.7134C41.1772 11.6205 41.0898 11.5527 40.9849 11.5217C40.8781 11.5004 40.7654 11.5081 40.6723 11.5701C40.4763 11.692 40.4164 11.9417 40.5293 12.1353C40.8425 12.691 47.8828 24.673 62.3407 31.563C46.2221 25.962 37.7356 14.2953 37.3486 13.7551C37.2863 13.6622 37.1678 13.5983 37.0688 13.5886C36.962 13.5673 36.8436 13.6041 36.7601 13.6679C36.5816 13.8034 36.5392 14.0667 36.6753 14.2448C37.0157 14.7153 43.4331 23.5437 55.626 29.6397C54.6353 29.1904 53.6425 28.7005 52.6439 28.1893C46.8951 25.2207 41.1354 21.2436 35.9868 16.6839C35.9013 16.6064 35.7983 16.5657 35.6838 16.5831C35.5712 16.5909 35.4702 16.6412 35.3927 16.7264C35.2472 16.8986 35.265 17.1638 35.438 17.3091C40.6294 21.9075 46.4512 25.9272 52.2641 28.9287C55.056 30.3713 57.7601 31.5449 60.3669 32.4474C57.269 31.6784 54.0309 30.5493 50.7945 29.1085C44.4419 26.2812 38.4008 22.3989 33.3105 17.9011C33.225 17.8236 33.1201 17.7927 33.0075 17.8004C32.8949 17.8081 32.794 17.8584 32.7261 17.9455C32.5807 18.1178 32.5984 18.383 32.7714 18.5282C37.92 23.0879 44.035 27.0051 50.4691 29.8789C54.3175 31.5927 58.1732 32.8652 61.8051 33.6401C57.7912 33.3123 53.6544 32.4367 49.6277 31.0597C43.3147 28.8944 37.4898 25.5483 32.7784 21.3778C32.6929 21.3003 32.588 21.2694 32.4754 21.2771C32.3628 21.2848 32.2619 21.3351 32.194 21.4222C32.0486 21.5945 32.0683 21.85 32.2393 22.0049C37.0265 26.251 42.9525 29.6474 49.3684 31.8533C53.0629 33.1238 56.8716 33.9742 60.5904 34.3639C56.7866 34.3498 52.9278 33.8517 49.2122 32.889C42.962 31.2696 37.3161 28.3417 32.8886 24.419C32.8031 24.3416 32.6982 24.3106 32.5856 24.3183C32.473 24.326 32.372 24.3764 32.3042 24.4635C32.1587 24.6357 32.1765 24.9009 32.3495 25.0462C36.8723 29.0483 42.6367 32.04 49.0112 33.6942C53.5814 34.8778 58.3896 35.3741 63.0301 35.1425C62.0576 35.4618 61.1124 35.7965 60.1788 36.1235C52.8846 38.6739 46.0039 41.0752 38.5559 34.4766C38.4704 34.3992 38.3655 34.3682 38.2529 34.3759C38.1403 34.3836 38.0394 34.434 37.9715 34.5211C37.8261 34.6933 37.8438 34.9586 38.0168 35.1038C45.8263 42.016 52.9341 39.5392 60.4554 36.9134C62.9417 36.0407 65.5038 35.1429 68.1381 34.5916C68.1298 35.848 67.745 39.0924 67.2392 43.4499C66.0907 53.2044 64.1748 69.5388 63.6827 86.278C63.7101 86.4949 63.3305 87.3853 63.0594 88.0357L63.04 88.0318Z" fill="#00A867" fill-opacity="0.3"/>
</svg>
