<svg width="151" height="61" viewBox="0 0 151 61" fill="none" xmlns="http://www.w3.org/2000/svg">
<path d="M83.8679 85.6244C83.6007 86.0121 83.3472 86.3798 83.2513 86.6606C79.1754 95.4253 78.1615 101.362 80.4701 102.94L80.5523 103L80.6413 102.953C81.9224 102.298 83.8405 95.1245 85.3612 88.9404C85.4983 88.3721 85.6079 87.9443 85.6627 87.7236C85.8682 87.0818 85.8134 86.3798 85.7723 85.8116C85.7449 85.4706 85.7175 85.1497 85.7723 84.9959C93.5954 63.3483 108.303 43.5258 111.584 39.2537C113.4 42.2689 116.263 45.03 119.88 47.2563C123.627 49.5628 128.08 51.2475 132.416 51.9963C136.609 52.7183 140.288 52.4643 142.514 51.3077C143.329 50.8865 143.952 50.3383 144.37 49.6965C144.418 49.6296 144.432 49.5427 144.411 49.4625C144.391 49.3823 144.343 49.3154 144.274 49.2753C144.206 49.2285 144.124 49.2151 144.042 49.2352C143.959 49.2552 143.891 49.302 143.843 49.3689C143.487 49.9238 142.939 50.3918 142.226 50.7662C140.116 51.8626 136.581 52.0899 132.526 51.3946C128.265 50.6592 123.895 49.0079 120.209 46.7415C117.764 45.2372 115.715 43.5258 114.085 41.6404C116.75 43.8199 120.38 45.5247 124.902 46.7281C134.067 49.1616 144.405 48.7605 146.309 47.9382C146.467 47.8713 146.535 47.6908 146.473 47.5371C146.439 47.4635 146.384 47.4034 146.302 47.3699C146.227 47.3365 146.138 47.3432 146.062 47.3699C144.514 48.0385 134.595 48.6602 125.066 46.1264C120.456 44.903 116.811 43.1581 114.194 40.9184C127.745 49.8502 148.241 44.2612 149.145 44.0071C149.309 43.9603 149.405 43.7932 149.364 43.6327C149.344 43.5525 149.296 43.4856 149.22 43.4455C149.145 43.4054 149.063 43.392 148.981 43.4188C148.076 43.6728 127.34 49.3355 114.037 40.0694C129.813 47.1359 149.344 40.5039 150.193 40.2031C150.351 40.1496 150.44 39.9758 150.392 39.8153C150.364 39.7351 150.31 39.6749 150.234 39.6415C150.159 39.6081 150.077 39.6014 149.995 39.6281C149.159 39.9156 130.211 46.3738 114.722 39.695C118.969 40.8248 124.114 41.3195 129.759 41.139C137.26 40.8917 145.199 39.4543 150.488 37.3818C150.645 37.3216 150.721 37.1411 150.666 36.9873C150.638 36.9138 150.577 36.8469 150.501 36.8202C150.426 36.7868 150.344 36.7868 150.262 36.8202C145.042 38.866 137.177 40.29 129.745 40.5307C125.484 40.671 121.49 40.417 117.983 39.7886C122.312 40.2499 127.012 40.2231 131.793 39.7017C139.274 38.886 146.172 36.9405 150.714 34.3666C150.865 34.2797 150.912 34.0992 150.83 33.9521C150.789 33.8786 150.721 33.8251 150.645 33.805C150.563 33.785 150.481 33.7917 150.406 33.8385C145.939 36.3723 139.13 38.2843 131.731 39.0933C126.052 39.715 120.517 39.6281 115.578 38.8526C123.593 39.0866 130.08 38.7657 135.355 37.8832C142.945 36.6063 148.063 34.0925 150.556 30.3954C150.652 30.255 150.611 30.0678 150.474 29.9742C150.406 29.9274 150.323 29.9141 150.241 29.9341C150.159 29.9475 150.09 30.001 150.042 30.0678C147.652 33.6112 142.678 36.038 135.259 37.2882C130.69 38.057 125.21 38.398 118.606 38.3111C124.429 37.9233 130.252 37.3751 135.109 36.2586C142.137 34.6474 146.823 31.9465 149.878 27.7613C149.974 27.6276 149.947 27.4338 149.81 27.3335C149.673 27.2399 149.474 27.2733 149.378 27.407C146.425 31.4651 141.849 34.0858 134.979 35.6636C130.916 36.5996 126.285 37.1277 120.983 37.5289C129.073 36.6865 137.657 35.102 148.83 26.6181C148.967 26.5178 148.994 26.324 148.892 26.1902C148.844 26.1234 148.768 26.0833 148.686 26.0699C148.604 26.0565 148.522 26.0833 148.453 26.1301C136.869 34.9215 128.094 36.2252 119.736 37.0341C127.84 35.3828 134.896 33.0295 148.364 24.8398C148.508 24.7529 148.556 24.5657 148.474 24.4253C148.433 24.3517 148.364 24.3049 148.282 24.2849C148.2 24.2648 148.118 24.2782 148.042 24.3183C133.232 33.3304 126.135 35.229 117.832 36.7868C122.936 35.2959 127.772 33.5376 132.259 31.5387C138.383 28.8043 143.685 25.6621 147.179 22.687C147.309 22.5801 147.323 22.3862 147.213 22.2592C147.158 22.199 147.083 22.1589 147.001 22.1522C146.919 22.1388 146.837 22.1723 146.775 22.2257C143.322 25.1607 138.075 28.2694 132.005 30.9838C128.478 32.5548 124.717 33.9855 120.778 35.2491C124.484 33.7382 127.991 32.0401 131.238 30.1815C136.917 26.939 141.445 23.3957 144.336 19.9393C144.446 19.8056 144.425 19.6184 144.295 19.5114C144.233 19.4579 144.151 19.4379 144.069 19.4446C143.987 19.4513 143.911 19.4914 143.857 19.5582C141.007 22.9611 136.534 26.4577 130.923 29.66C126.943 31.9331 122.47 34.0123 117.784 35.7572C121.456 34.0591 125.066 32.0668 128.567 29.7937C136.438 24.6927 141.329 19.7855 142.219 18.5755C142.322 18.4351 142.288 18.2479 142.151 18.1476C142.082 18.1008 142.007 18.0807 141.925 18.0941C141.843 18.1075 141.767 18.1476 141.719 18.2211C140.884 19.3577 135.931 24.2916 128.231 29.2856C124.237 31.8796 120.093 34.1126 115.887 35.9444C119.031 33.9789 122.278 31.5654 125.566 28.7642C132.896 22.5132 137.924 16.4762 138.609 15.5402C138.712 15.3998 138.678 15.2126 138.541 15.1124C138.472 15.0656 138.397 15.0455 138.308 15.0589C138.226 15.0723 138.15 15.1191 138.102 15.1859C137.424 16.1085 132.444 22.0853 125.155 28.3029C121.374 31.5253 117.668 34.2129 114.105 36.3121C121.579 30.3887 131.718 22.3193 136.28 14.0293C136.362 13.8822 136.307 13.695 136.157 13.6148C136.006 13.5346 135.821 13.5948 135.739 13.7418C131.499 21.4502 122.298 29.0182 115.03 34.7945C115.455 34.3532 115.873 33.912 116.284 33.4841L116.482 33.2769C122.278 27.2265 127.279 22.0051 134.554 11.7362C134.65 11.5958 134.615 11.4086 134.478 11.315C134.41 11.2682 134.328 11.2481 134.246 11.2682C134.163 11.2816 134.088 11.3284 134.04 11.3952C126.792 21.624 121.805 26.8321 116.024 32.8624L115.914 32.976C115.112 33.8117 114.297 34.6675 113.441 35.57C121.333 22.1723 132.464 11.442 132.951 10.9807C133.074 10.8671 133.074 10.6732 132.958 10.5529C132.903 10.4927 132.821 10.4593 132.738 10.4593C132.656 10.4593 132.581 10.4927 132.519 10.5462C132.423 10.6331 124.203 18.5487 116.859 29.1185C123.463 18.054 131.053 8.96839 131.416 8.53383C131.526 8.40681 131.505 8.21293 131.375 8.10596C131.314 8.05248 131.231 8.02573 131.149 8.03911C131.067 8.04579 130.992 8.0859 130.937 8.15276C130.82 8.28647 120.072 21.0691 112.859 35.0084C115.311 27.748 117.209 22.6804 119.223 18.9164C121.565 14.5374 123.956 12.2242 126.991 11.4019C127.155 11.3551 127.251 11.188 127.21 11.0275C127.19 10.9473 127.142 10.8804 127.066 10.8403C126.998 10.8002 126.909 10.7868 126.827 10.8136C123.614 11.6827 121.1 14.1029 118.675 18.6423C116.695 22.3461 114.825 27.3201 112.55 34.0123C113.53 28.6305 115.051 23.8102 117.065 19.6451C120.175 13.2204 123.908 9.57677 126.491 7.64466C126.628 7.54438 126.655 7.3505 126.559 7.21679C126.511 7.14993 126.436 7.10982 126.354 7.09645C126.272 7.08308 126.189 7.10314 126.121 7.15662C123.484 9.12884 119.682 12.846 116.51 19.3844C114.619 23.2821 113.167 27.748 112.174 32.7019C113.64 16.0082 122.367 5.35822 122.764 4.88355C122.874 4.74984 122.853 4.56264 122.723 4.45568C122.662 4.40219 122.579 4.38214 122.497 4.38882C122.415 4.39551 122.34 4.43562 122.285 4.50247C121.887 4.98383 112.879 15.9681 111.523 33.1298C110.297 14.0962 118.791 3.23891 119.175 2.76424C119.277 2.63053 119.257 2.44334 119.12 2.33637C119.058 2.28957 118.976 2.26283 118.894 2.2762C118.812 2.28957 118.736 2.32968 118.681 2.39654C118.305 2.87121 109.858 13.6616 110.865 32.5348C110.029 27.641 109.653 22.8341 109.742 18.2144C109.906 9.61689 111.612 3.81387 112.619 1.11961C112.646 1.03938 112.646 0.959157 112.612 0.885616C112.578 0.812076 112.516 0.758592 112.434 0.73185C112.276 0.678366 112.098 0.758591 112.037 0.919043C111.016 3.64673 109.283 9.52997 109.118 18.2144C109.022 23.3088 109.488 28.6171 110.495 34.0257C108.543 28.4499 107.337 22.9812 106.892 17.7531C106.152 8.97507 107.741 3.11189 108.748 0.404259C108.776 0.324033 108.776 0.243808 108.735 0.170267C108.7 0.0967268 108.639 0.0432431 108.563 0.0165011C108.406 -0.0369829 108.228 0.0432423 108.166 0.203694C107.139 2.95812 105.522 8.9149 106.269 17.8133C106.741 23.4158 108.084 29.2789 110.269 35.2558C101.83 20.5945 104.583 2.323 104.707 1.52742C104.72 1.4472 104.7 1.36697 104.645 1.30012C104.597 1.23326 104.522 1.19315 104.44 1.18646C104.275 1.16641 104.118 1.28006 104.09 1.4472C104.063 1.63439 101.364 19.1036 108.728 33.7181C98.9044 19.2707 101.254 3.62667 101.364 2.93138C101.377 2.85116 101.364 2.77093 101.309 2.70407C101.261 2.63722 101.186 2.59711 101.103 2.58373C100.939 2.56368 100.781 2.67733 100.754 2.84447C100.638 3.57987 98.1372 20.2803 109.043 35.2357C96.4109 21.6775 97.7056 3.94758 97.7193 3.76038C97.7193 3.68016 97.6988 3.59993 97.644 3.53976C97.5892 3.47959 97.5138 3.44616 97.4316 3.43948C97.2603 3.43279 97.1165 3.55982 97.1028 3.72696C97.048 4.42225 95.9793 19.9259 106.406 33.1231C94.4037 20.7081 93.4447 5.70586 93.4036 5.03063C93.4036 4.9504 93.3625 4.87018 93.294 4.81669C93.2323 4.76321 93.157 4.73647 93.0679 4.74315C92.8967 4.75652 92.7665 4.9036 92.7802 5.07074C92.8213 5.84626 93.9516 23.6364 109.255 36.6464C105.378 34.2195 101.679 30.596 98.466 26.0766C94.6367 20.6747 91.5608 14.1296 89.5742 7.14993C89.5537 7.06971 89.4989 7.00285 89.4235 6.96274C89.3482 6.92263 89.266 6.91594 89.1838 6.94268C89.0262 6.98948 88.9303 7.15662 88.9714 7.31707C90.9786 14.3703 94.0818 20.9756 97.9522 26.4309C98.9113 27.7814 99.9046 29.0516 100.939 30.235C99.4936 28.8578 98.0824 27.3602 96.7055 25.7691C92.0815 20.3939 88.2316 14.2031 85.5599 7.87865C85.5257 7.80511 85.464 7.74494 85.3887 7.71151C85.3133 7.67809 85.2242 7.68477 85.1489 7.71151C84.9913 7.77837 84.9228 7.95888 84.9845 8.11265C87.6767 14.4973 91.5608 20.7416 96.2259 26.1635C99.2058 29.6266 102.439 32.6618 105.679 35.0419C94.5887 29.172 85.142 22.7004 86.6286 15.1057C86.6423 15.0255 86.6286 14.9452 86.5806 14.8784C86.5327 14.8115 86.4642 14.7647 86.382 14.7514C86.2175 14.7246 86.0531 14.8316 86.0189 14.9987C84.4296 23.1216 94.4174 29.8338 105.933 35.8775C104.152 35.3628 102.33 34.9549 100.542 34.5471C93.1433 32.8824 86.1559 31.3113 82.5526 22.7539C82.5183 22.6804 82.4635 22.6202 82.3813 22.5868C82.306 22.5533 82.2169 22.56 82.1416 22.5868C81.984 22.6536 81.9155 22.8274 81.9772 22.9879C85.7038 31.8328 92.835 33.4373 100.398 35.1355C103.83 35.9043 107.378 36.7065 110.571 38.2509C107.317 42.4695 92.3349 62.5527 84.3611 84.6884C84.272 84.9358 84.0254 85.2901 83.7925 85.6311L83.8679 85.6244Z" fill="#00A867" fill-opacity="0.3"/>
<path d="M49.7051 75.7121C49.7737 76.5188 49.8252 77.032 49.9548 77.2551C50.9251 80.4972 53.3738 84.1658 55.2184 85.1074C55.672 85.3373 56.0771 85.405 56.4244 85.3058C56.4389 85.3016 56.4533 85.2975 56.4678 85.2933L56.5763 85.2623L56.5881 85.1442C56.6309 84.8412 56.3811 84.4 56.033 83.788C55.7581 83.3157 55.4528 82.7679 55.2136 82.1784C54.8986 81.3885 54.572 80.5332 54.2673 79.7251C53.5781 77.8946 52.9814 76.3208 52.5896 75.8513C52.3039 75.4739 51.772 74.9298 51.3431 74.4939C51.0495 74.1953 50.7716 73.9228 50.7111 73.8253C44.184 61.7513 36.4425 41.4475 35.3616 38.5967C38.848 39.1989 42.706 38.1034 45.3697 37.0586C50.2881 35.1243 54.8576 31.8667 56.0378 30.0372C56.1292 29.8963 56.0888 29.709 55.9423 29.6131C55.8727 29.5642 55.7826 29.5517 55.7009 29.5674C55.6213 29.5901 55.548 29.634 55.5049 29.6999C54.3853 31.4432 49.9467 34.5869 45.1398 36.474C42.3015 37.5916 39.6589 38.156 37.3847 38.1406C40.3233 37.5682 43.4262 36.2065 46.6296 34.1046C52.4494 30.2752 56.7785 25.1123 57.106 23.6874C57.1434 23.5237 57.0379 23.3549 56.87 23.3187C56.785 23.2971 56.7033 23.3128 56.6301 23.3567C56.5568 23.4006 56.5065 23.4686 56.4842 23.5515C56.2134 24.746 52.0709 29.7714 46.2706 33.5875C43.3045 35.5374 40.4331 36.8329 37.7079 37.4361C48.9901 32.8864 55.5333 22.4997 55.8206 22.0427C55.9119 21.9018 55.8694 21.7074 55.7251 21.6186C55.6482 21.5717 55.5653 21.5571 55.4836 21.5728C55.4019 21.5885 55.3308 21.6395 55.2826 21.7145C55.0179 22.1421 49.2603 31.2177 39.3924 36.0057C49.4968 29.8035 53.6264 19.6708 53.807 19.1984C53.8703 19.0425 53.7917 18.8585 53.6392 18.7949C53.5593 18.7642 53.4713 18.7588 53.3959 18.7956C53.3185 18.8254 53.2588 18.8884 53.2199 18.9684C53.0505 19.3994 49.3193 28.6071 40.2 34.7419C42.0186 33.2349 43.7344 31.4895 45.33 29.5259C48.481 25.6486 50.8735 21.2308 51.8832 17.4149C51.9278 17.2491 51.8224 17.0803 51.6596 17.035C51.5746 17.0134 51.4908 17.0221 51.4176 17.066C51.3443 17.1099 51.294 17.1778 51.2695 17.2537C50.2749 20.9888 47.9264 25.3175 44.8278 29.1339C43.5006 30.7606 42.0907 32.2426 40.5992 33.5566C41.7392 32.3278 42.8299 30.96 43.866 29.4625C46.6222 25.4992 48.911 20.6825 50.004 16.5674C50.0486 16.4016 49.9431 16.2328 49.7803 16.1875C49.6953 16.1659 49.6115 16.1746 49.5383 16.2185C49.465 16.2624 49.4126 16.3233 49.3903 16.4062C48.3145 20.4476 46.0595 25.1934 43.3433 29.107C42.2518 30.6816 41.0993 32.1052 39.9077 33.3717C41.3866 31.6482 42.6621 29.8221 43.7166 27.9138C45.7847 24.1702 46.9949 20.1057 47.2038 16.1592C47.2153 15.9875 47.0778 15.8432 46.909 15.8303C46.8283 15.8228 46.7415 15.8476 46.6797 15.9035C46.6179 15.9594 46.5769 16.0324 46.5711 16.1182C46.3658 19.9719 45.1852 23.9514 43.156 27.615C41.8473 29.9862 40.1912 32.2195 38.2143 34.2997C39.216 32.9498 40.0737 31.5645 40.8252 30.0872C42.7799 26.2535 44.0601 21.7406 44.7421 16.3045C44.7629 16.1379 44.6451 15.9803 44.4721 15.9533C44.3892 15.9387 44.3024 15.9635 44.2406 16.0195C44.1694 16.0704 44.1284 16.1433 44.1227 16.2291C43.4507 21.5935 42.1898 26.0397 40.2637 29.8116C39.4476 31.4145 38.5743 32.7737 37.7236 33.9198C38.8535 31.9746 39.729 29.888 40.3368 27.6943C41.9451 21.8633 41.0927 17.4934 40.7869 16.2878C40.7384 16.1257 40.5804 16.0178 40.4047 16.0604C40.3251 16.0832 40.2519 16.1271 40.2109 16.2C40.1699 16.2729 40.1548 16.3538 40.1729 16.4404C40.4661 17.6037 41.297 21.8497 39.7231 27.5331C38.9896 30.1989 37.8452 32.6991 36.3156 34.988C37.2918 32.3982 37.9431 29.8248 38.2489 27.3043C38.6896 23.7123 38.4385 20.2493 37.5014 17.013C37.4529 16.8509 37.2753 16.7563 37.1141 16.7948C37.0345 16.8175 36.9633 16.8685 36.9224 16.9414C36.8814 17.0143 36.8684 17.1022 36.8916 17.1797C37.8055 20.3385 38.0479 23.7199 37.6223 27.231C37.2778 30.0686 36.4897 32.9719 35.2813 35.8882C35.6837 33.034 35.8572 30.3601 35.798 27.9057C35.7031 24.046 35.0331 20.6263 33.7915 17.7372C33.7212 17.5813 33.5335 17.5049 33.3806 17.5716C33.3032 17.6014 33.2435 17.6644 33.2118 17.7423C33.1802 17.8202 33.1817 17.9039 33.2121 17.9794C34.416 20.795 35.0701 24.1352 35.1657 27.9182C35.2266 30.3261 35.0549 32.9537 34.6616 35.7593C34.5264 34.7039 34.4071 33.7281 34.2869 32.7754L34.2782 32.6938C33.6752 27.7399 33.2423 24.1682 31.1573 18.5134C31.1341 18.4358 31.0675 18.3707 30.9948 18.3379C30.9222 18.3052 30.8342 18.2997 30.7546 18.3225C30.675 18.3452 30.6153 18.4082 30.5743 18.4811C30.5333 18.5541 30.5348 18.6378 30.5602 18.7224C32.6283 24.3208 33.0548 27.8714 33.6524 32.7809L33.6651 32.8232C33.7868 33.8595 33.9148 34.917 34.0609 36.0612C32.1659 32.196 30.8234 28.4712 29.156 23.8446L29.1413 23.7953C28.6504 22.4437 28.1384 21.0216 27.5688 19.4859C27.5058 19.3279 27.3304 19.2404 27.1661 19.295C27.0866 19.3178 27.0248 19.3737 26.9859 19.4537C26.9449 19.5266 26.9464 19.6103 26.9717 19.6949C27.5391 21.2236 28.0596 22.6738 28.561 24.0607C30.0717 28.2424 31.3153 31.6894 32.9391 35.1731C26.3508 25.8862 24.6998 21.0255 24.6829 20.9691C24.6344 20.807 24.4632 20.7335 24.2781 20.7711C24.1117 20.8187 24.0258 21.004 24.0816 21.164C24.1584 21.3945 26.0379 26.7561 33.354 36.8219C30.2471 34.864 27.6177 32.7696 25.5209 30.5918C23.1607 28.1374 21.5444 25.6232 20.7149 23.1137C20.6663 22.9516 20.4837 22.8661 20.3245 22.9116C20.1581 22.9592 20.0701 23.1374 20.1186 23.2995C20.9808 25.8915 22.6462 28.4911 25.0658 31.0127C26.869 32.8919 29.0611 34.7058 31.6076 36.4184C27.3752 34.5834 24.0019 32.7324 21.55 30.9162C18.6117 28.7342 17.1045 26.6633 17.0691 24.7606C17.0661 24.5931 16.9214 24.4509 16.7496 24.4541C16.6637 24.4557 16.5862 24.4855 16.5265 24.5485C16.4668 24.6115 16.4352 24.6894 16.4367 24.7731C16.4784 26.8805 18.0673 29.1194 21.1678 31.4234C23.5708 33.2076 26.8269 35.008 30.8893 36.7998C26.7765 35.6269 23.2045 34.3452 20.2314 32.9918C14.2573 30.2701 12.6533 28.112 12.3974 27.7032C12.3076 27.5605 12.1117 27.5094 11.9601 27.6063C11.8136 27.6941 11.7702 27.8902 11.86 28.0328C12.2536 28.6395 13.985 30.8299 19.9686 33.5567C22.9416 34.9101 26.5115 36.1846 30.6026 37.3638C26.3002 36.8954 22.8511 36.3132 19.8948 35.5671C15.5693 34.4703 12.1513 32.9687 9.4541 30.9625C9.38447 30.9136 9.29947 30.892 9.21568 30.9006C9.13399 30.9164 9.06074 30.9602 9.00829 31.0212C8.90761 31.1571 8.94075 31.3465 9.07487 31.4535C11.8417 33.5086 15.3344 35.0501 19.7429 36.1614C22.8266 36.9399 26.4135 37.5363 30.9323 38.0193C17.9784 39.0301 8.20032 32.966 8.09333 32.8972C8.01858 32.8573 7.93569 32.8428 7.854 32.8585C7.77443 32.8812 7.70118 32.9251 7.66018 32.9981C7.57095 33.146 7.61856 33.3313 7.76293 33.4201C8.17012 33.6786 17.1438 39.154 29.3266 38.7156C16.4778 40.5763 6.63964 35.8071 6.18813 35.5843C6.11339 35.5444 6.0109 35.5431 5.94067 35.5709C5.86109 35.5936 5.79417 35.6587 5.76041 35.7295C5.68775 35.8804 5.75194 36.0686 5.90656 36.1392C6.30201 36.3321 13.7437 39.9426 24.1186 39.761C23.2918 39.8062 22.4493 39.8252 21.5954 39.8322C16.6705 39.8555 11.3828 39.2175 6.30187 37.9848C6.21687 37.9632 6.13307 37.9719 6.06194 38.0228C5.98869 38.0667 5.93834 38.1347 5.91603 38.2176C5.87864 38.3813 5.98412 38.55 6.15201 38.5862C11.2754 39.8297 16.6201 40.4744 21.5999 40.4506C23.9919 40.4399 26.23 40.282 28.3068 39.9789C25.9457 40.5393 23.3631 40.9105 20.6717 41.0756C15.3894 41.4001 9.94517 40.9216 4.92544 39.7097C4.84045 39.6881 4.75876 39.7038 4.68551 39.7477C4.61226 39.7916 4.56192 39.8595 4.54684 39.9404C4.50945 40.1041 4.61494 40.2729 4.78282 40.309C9.86373 41.5417 15.37 42.0178 20.7238 41.6958C23.9243 41.4998 26.9741 41.0103 29.6975 40.2699C26.874 41.4368 23.7744 42.2848 20.5724 42.7643C15.5501 43.5118 10.4408 43.3125 5.79212 42.1857C5.70712 42.1641 5.62543 42.1798 5.55218 42.2237C5.47893 42.2676 5.42859 42.3355 5.41351 42.4164C5.37612 42.5801 5.4795 42.7418 5.64949 42.785C10.3759 43.9354 15.5712 44.1332 20.6773 43.377C23.6176 42.9418 26.4869 42.1902 29.1332 41.1657C26.5619 42.4671 23.7831 43.4683 20.937 44.1138C16.1495 45.1996 11.3084 45.2143 6.93855 44.1532C6.85355 44.1316 6.77186 44.1473 6.69861 44.1912C6.62536 44.2351 6.57502 44.3031 6.55994 44.3839C6.52255 44.5476 6.62804 44.7164 6.79592 44.7525C11.258 45.8332 16.2016 45.8198 21.0853 44.7141C24.5857 43.9198 28.0045 42.5902 31.0535 40.8385C30.51 41.3841 29.9903 41.9306 29.4758 42.4679C25.4539 46.6631 21.6584 50.6176 14.3075 48.8327C14.2225 48.8111 14.1409 48.8268 14.0676 48.8707C13.9944 48.9146 13.944 48.9826 13.9289 49.0634C13.8915 49.2271 13.997 49.3959 14.1649 49.432C21.8702 51.2992 25.7923 47.2167 29.9408 42.8935C31.3106 41.4613 32.7225 39.9864 34.3054 38.7151C34.7427 39.5464 35.6269 41.8185 36.8217 44.8663C39.4857 51.6945 43.9515 63.1261 49.5204 74.3341C49.6154 74.4677 49.6732 75.1856 49.7195 75.708L49.7051 75.7121Z" fill="#00A867" fill-opacity="0.3"/>
</svg>
