<svg width="242" height="167" viewBox="0 0 242 167" fill="none" xmlns="http://www.w3.org/2000/svg">
<path d="M150.205 142.478C150.101 143.102 150.001 143.695 150.044 144.091C150.067 157.092 152.211 164.903 155.922 165.511L156.057 165.538L156.139 165.43C157.327 163.902 155.58 154.069 153.913 145.668C153.756 144.898 153.646 144.314 153.587 144.014C153.473 143.115 153.006 142.291 152.633 141.622C152.405 141.222 152.189 140.846 152.168 140.628C149.378 109.796 156.015 77.2693 157.582 70.1957C161.51 72.8364 166.571 74.5708 172.246 75.2246C178.125 75.902 184.51 75.4201 190.22 73.864C195.74 72.3572 200.077 69.9535 202.132 67.2768C202.886 66.2995 203.333 65.2766 203.477 64.2567C203.497 64.1479 203.464 64.0342 203.394 63.9482C203.323 63.8621 203.227 63.808 203.12 63.7981C203.01 63.78 202.902 63.8106 202.814 63.8818C202.725 63.953 202.668 64.049 202.648 64.1578C202.529 65.0367 202.128 65.919 201.473 66.7807C199.526 69.3178 195.348 71.6071 190.011 73.0684C184.4 74.5979 178.135 75.0737 172.354 74.4101C168.517 73.9693 165.047 73.0498 161.987 71.6807C166.475 72.8194 171.87 72.83 178.064 71.7225C190.618 69.4701 202.986 63.0967 204.838 61.0106C204.992 60.8394 204.973 60.5805 204.81 60.4282C204.727 60.3581 204.626 60.316 204.506 60.322C204.396 60.3242 204.291 60.383 204.214 60.4585C202.708 62.1545 190.975 68.5588 177.922 70.8958C171.607 72.0294 166.173 71.9778 161.71 70.7384C183.305 73.9086 205.099 55.4303 206.056 54.606C206.23 54.4554 206.252 54.1971 206.11 54.025C206.04 53.9389 205.943 53.8848 205.828 53.8788C205.714 53.8728 205.606 53.9033 205.521 53.9827C204.564 54.807 182.52 73.5114 161.034 69.7935C184.281 69.4234 204.304 50.2242 205.168 49.374C205.329 49.2192 205.339 48.9566 205.189 48.7884C205.11 48.7063 205.009 48.6641 204.898 48.6663C204.787 48.6685 204.683 48.7071 204.598 48.7865C203.744 49.6126 184.331 68.2685 161.656 68.9474C167.475 67.9063 174.025 65.5805 180.801 62.1472C189.8 57.5757 198.656 51.3045 203.921 45.7685C204.078 45.6055 204.068 45.3427 203.913 45.1865C203.838 45.1125 203.725 45.0661 203.618 45.0764C203.507 45.0786 203.407 45.1254 203.326 45.2129C198.129 50.6773 189.357 56.8893 180.437 61.4137C175.325 64.0104 170.314 65.9743 165.683 67.2052C171.221 65.3027 176.932 62.5949 182.461 59.2375C191.112 53.9852 198.411 47.6876 202.48 41.9658C202.614 41.7741 202.57 41.5268 202.386 41.3944C202.294 41.3282 202.18 41.302 202.077 41.3205C201.965 41.3428 201.869 41.3978 201.803 41.4977C197.803 47.1278 190.595 53.3339 182.04 58.5313C175.474 62.5218 168.68 65.5668 162.22 67.4335C172.119 63.156 179.842 59.072 185.767 54.9939C194.289 49.1171 199.093 43.1409 200.027 37.2165C200.064 36.9908 199.907 36.7861 199.687 36.75C199.577 36.732 199.469 36.7625 199.381 36.8338C199.288 36.8968 199.235 37.001 199.215 37.1098C198.318 42.7884 193.64 48.5767 185.311 54.3234C180.181 57.8614 173.697 61.3966 165.601 65.0499C172.476 61.2627 179.259 57.28 184.542 53.1547C192.189 47.1903 196.361 41.2318 197.701 34.3928C197.742 34.1753 197.598 33.9547 197.374 33.9105C197.154 33.8744 196.931 34.0282 196.89 34.2458C195.603 40.8714 191.518 46.6698 184.044 52.5037C179.627 55.9567 174.285 59.2365 168.052 62.7436C177.431 57.1117 186.988 50.2947 195.773 33.5964C195.883 33.3963 195.806 33.1444 195.605 33.04C195.508 32.9858 195.394 32.9798 195.286 33.0103C195.178 33.0408 195.093 33.1202 195.036 33.2162C185.926 50.5232 175.975 57.1072 166.252 62.8505C175.186 56.225 182.445 49.3408 194.193 31.6947C194.319 31.5069 194.271 31.2515 194.091 31.1272C193.999 31.061 193.889 31.043 193.777 31.0653C193.666 31.0877 193.573 31.1508 193.504 31.2425C180.587 50.655 173.02 57.0087 163.79 63.6332C169.16 58.9113 174.053 54.0156 178.382 49.0255C184.288 42.2073 188.96 35.3601 191.524 29.7461C191.621 29.5417 191.528 29.2977 191.322 29.2053C191.221 29.1632 191.106 29.1572 191.002 29.1958C190.895 29.2263 190.813 29.3139 190.769 29.4141C188.232 34.9558 183.608 41.7311 177.757 48.4937C174.353 52.4164 170.585 56.3007 166.504 60.0827C170.16 56.1318 173.467 52.066 176.366 47.9529C181.44 40.769 184.94 33.8737 186.495 28.0163C186.553 27.791 186.421 27.5746 186.202 27.5183C186.096 27.4883 185.985 27.5106 185.888 27.5656C185.792 27.6205 185.723 27.7123 185.694 27.8249C184.159 33.5938 180.698 40.4008 175.685 47.4968C172.129 52.5323 167.862 57.6123 163.146 62.4059C166.653 58.2465 169.918 53.7638 172.89 49.0012C179.577 38.3048 182.743 29.5409 183.14 27.5594C183.185 27.3299 183.037 27.1213 182.813 27.0771C182.703 27.059 182.599 27.0775 182.507 27.1406C182.414 27.2037 182.345 27.2954 182.329 27.4124C181.957 29.273 178.731 38.1046 172.191 48.5732C168.801 54.0075 165.022 59.0877 160.94 63.7143C163.653 59.5292 166.235 54.7399 168.647 49.4547C174.021 37.6651 176.711 27.4465 177.013 25.9161C177.058 25.6865 176.91 25.4779 176.686 25.4337C176.576 25.4157 176.472 25.4341 176.372 25.5011C176.279 25.5642 176.214 25.6641 176.193 25.7729C175.892 27.2832 173.226 37.4011 167.884 49.1266C165.111 55.2058 162.125 60.5904 158.979 65.1762C164.714 53.7039 172.474 38.0996 173.315 25.4009C173.331 25.1748 173.158 24.9779 172.928 24.966C172.699 24.954 172.508 25.1326 172.492 25.3586C171.713 37.1654 164.81 51.6244 159.242 62.8005C159.508 62.0211 159.766 61.2455 160.024 60.4902L160.148 60.1245C163.765 49.4529 166.887 40.2437 169.906 23.5893C169.943 23.3637 169.794 23.1551 169.574 23.119C169.464 23.101 169.352 23.1233 169.264 23.1946C169.171 23.2577 169.106 23.3576 169.086 23.4663C166.077 40.0563 162.965 49.2413 159.352 59.8807L159.284 60.0816C158.783 61.5562 158.277 63.063 157.747 64.6502C159.736 43.8323 167.192 24.4203 167.522 23.5813C167.608 23.3726 167.498 23.1364 167.287 23.056C167.186 23.0139 167.067 23.02 166.967 23.0668C166.867 23.1136 166.794 23.1972 166.749 23.2975C166.682 23.458 161.171 37.783 158.24 54.843C159.988 37.6013 164.065 22.2094 164.26 21.4732C164.321 21.2561 164.185 21.0315 163.966 20.9753C163.86 20.9452 163.745 20.9594 163.652 21.0225C163.556 21.0774 163.487 21.1692 163.458 21.2819C163.393 21.5111 157.572 43.2057 156.718 64.2974C155.573 54.0543 155 46.799 155.312 41.0661C155.674 34.3965 157.27 30.2168 160.5 27.4872C160.674 27.3366 160.695 27.0784 160.554 26.9063C160.483 26.8202 160.387 26.766 160.272 26.76C160.166 26.7502 160.05 26.7846 159.965 26.8639C156.545 29.7519 154.859 34.1321 154.488 41.0441C154.184 46.6842 154.737 53.8098 155.775 63.2591C153.905 56.1435 153.014 49.4042 153.097 43.1824C153.229 33.5833 155.705 27.0181 157.752 23.1936C157.862 22.9934 157.785 22.7416 157.592 22.6332C157.495 22.5791 157.38 22.5731 157.273 22.6036C157.165 22.6341 157.076 22.7053 157.023 22.8095C154.932 26.7141 152.415 33.4078 152.273 43.1806C152.188 49.0063 152.96 55.2749 154.57 61.8768C146.853 40.7006 151.425 22.7551 151.639 21.9505C151.696 21.7252 151.565 21.5088 151.345 21.4526C151.24 21.4225 151.128 21.4449 151.032 21.4998C150.935 21.5547 150.866 21.6465 150.838 21.7592C150.628 22.5719 145.904 41.0846 154.02 62.7687C141.691 40.2738 145.861 22.2083 146.058 21.4115C146.108 21.1901 145.976 20.9737 145.748 20.9214C145.646 20.8994 145.531 20.9137 145.438 20.9767C145.346 21.0398 145.277 21.1316 145.248 21.2443C145.059 22.0371 140.91 39.9938 152.88 62.418C149.076 56.9306 145.881 51.2877 143.359 45.6078C138.665 35.0379 137.441 26.9958 137.134 23.1395C137.122 23.0261 137.076 22.9284 136.992 22.8583C136.909 22.7882 136.803 22.7581 136.688 22.7723C136.465 22.7968 136.294 22.996 136.31 23.2266C136.619 27.1314 137.856 35.2869 142.6 45.9627C145.383 52.2249 148.972 58.428 153.278 64.4453C147.725 58.7625 143.143 52.7851 139.624 46.668C133.726 36.3929 132.325 28.3437 132.01 24.4711C131.998 24.3578 131.952 24.26 131.86 24.1938C131.777 24.1237 131.671 24.0936 131.564 24.1039C131.342 24.1285 131.17 24.3276 131.187 24.5582C131.503 28.4995 132.924 36.6783 138.899 47.0962C142.664 53.6539 147.638 60.034 153.703 66.0729C135.073 53.0121 128.027 29.1802 127.725 28.1405C127.696 28.035 127.625 27.9489 127.52 27.8987C127.424 27.8445 127.309 27.8385 127.205 27.8772C126.993 27.9463 126.866 28.1745 126.928 28.3938C127.001 28.6375 133.657 51.4606 150.95 65.0766C130.755 53.0643 124.713 32.664 124.45 31.7543C124.422 31.6488 124.359 31.5588 124.254 31.5086C124.158 31.4544 124.043 31.4484 123.935 31.4789C123.724 31.5481 123.596 31.7763 123.658 31.9955C123.935 32.9579 130.395 54.7311 152.198 66.7465C129.087 57.4165 120.571 35.075 120.482 34.8391C120.436 34.7414 120.365 34.6553 120.264 34.6132C120.163 34.5711 120.052 34.5732 119.948 34.6119C119.736 34.7012 119.633 34.9379 119.711 35.1494C120.04 36.0278 127.564 55.5278 147.781 65.6736C126.089 57.3778 116.38 39.6431 115.946 38.8437C115.9 38.746 115.804 38.6716 115.691 38.6455C115.585 38.6154 115.478 38.6257 115.373 38.6845C115.172 38.7983 115.097 39.0516 115.209 39.2475C115.701 40.1691 127.205 61.2034 153.259 68.3445C147.153 67.5946 140.583 65.285 134.095 61.6069C126.354 57.2045 118.88 50.9801 112.486 43.6061C112.415 43.52 112.311 43.4698 112.196 43.4638C112.081 43.4578 111.977 43.4964 111.892 43.5758C111.727 43.7225 111.705 43.9808 111.847 44.1529C118.308 51.6048 125.849 57.887 133.671 62.3312C135.608 63.4308 137.542 64.4132 139.476 65.2663C136.931 64.4109 134.359 63.3894 131.775 62.2344C123.081 58.3169 114.865 52.9649 108.009 46.7793C107.926 46.7091 107.816 46.6709 107.706 46.6731C107.595 46.6752 107.49 46.7341 107.413 46.8096C107.26 46.9807 107.279 47.2397 107.441 47.392C114.357 53.6393 122.644 59.0369 131.415 62.988C137.018 65.5115 142.685 67.3694 147.989 68.425C131.133 67.586 115.938 65.0778 113.426 54.9772C113.397 54.8717 113.334 54.7817 113.238 54.7275C113.141 54.6734 113.031 54.6554 112.924 54.6859C112.708 54.7469 112.569 54.9708 112.622 55.194C115.309 65.9966 131.301 68.49 148.773 69.299C146.31 69.6856 143.857 70.226 141.447 70.7469C131.484 72.9301 122.075 74.9933 112.813 66.6171C112.729 66.547 112.628 66.5048 112.509 66.5109C112.398 66.5131 112.294 66.5719 112.217 66.6474C112.063 66.8186 112.078 67.0694 112.245 67.2298C121.821 75.8861 131.424 73.7817 141.606 71.5457C146.226 70.5288 151.006 69.4863 155.775 69.5509C154.212 76.5437 147.389 109.544 150.274 141.056C150.306 141.408 150.207 141.981 150.117 142.529L150.205 142.478Z" fill="#00A867" fill-opacity="0.3"/>
<path d="M102.936 149.847C103.479 150.791 103.834 151.387 104.118 151.585C107.146 154.983 112.219 158.059 115.002 158.157C115.686 158.179 116.218 158.031 116.585 157.712C116.6 157.699 116.615 157.685 116.631 157.672L116.745 157.572L116.692 157.422C116.572 157.028 116.016 156.633 115.244 156.085C114.64 155.666 113.956 155.173 113.329 154.59C112.496 153.807 111.611 152.951 110.779 152.14C108.898 150.302 107.275 148.723 106.53 148.374C105.967 148.077 105.009 147.717 104.238 147.43C103.711 147.233 103.217 147.059 103.088 146.975C88.2608 135.978 67.2695 115.644 64.3295 112.786C68.9206 111.535 72.998 108.004 75.6491 105.215C80.5411 100.058 84.2547 93.4869 84.6514 90.5858C84.6825 90.3622 84.5266 90.1568 84.2936 90.1234C84.1809 90.1034 84.0639 90.1395 83.9733 90.2051C83.8893 90.2782 83.8251 90.3733 83.81 90.4782C83.4381 93.2397 79.8191 99.5972 75.0361 104.633C72.2138 107.611 69.315 109.803 66.5351 111.079C69.79 108.708 72.7958 105.283 75.5027 100.898C80.4143 92.9186 82.7504 84.163 82.3382 82.2403C82.2906 82.0195 82.066 81.8739 81.8408 81.9255C81.725 81.9475 81.6344 82.0132 81.5701 82.1083C81.5058 82.2035 81.4832 82.315 81.5032 82.4287C81.8532 84.0384 79.6662 92.5201 74.7709 100.472C72.2666 104.537 69.5051 107.75 66.5279 110.036C77.6855 98.0697 79.7458 81.6884 79.8357 80.9679C79.8668 80.7443 79.7043 80.5315 79.4778 80.5055C79.3575 80.4922 79.2482 80.5216 79.1576 80.5872C79.067 80.6529 79.0093 80.7555 78.9933 80.8743C78.9142 81.5461 77.0649 95.8825 67.7661 107.334C76.5479 94.0246 75.8118 79.3268 75.7629 78.6483C75.7514 78.4224 75.5507 78.2428 75.3288 78.2523C75.2139 78.2603 75.1036 78.3038 75.0328 78.3916C74.9553 78.472 74.9184 78.5827 74.9166 78.7023C74.9555 79.324 75.6506 92.6678 68.0308 105.334C69.3889 102.463 70.4861 99.3593 71.3125 96.0584C72.945 89.54 73.3453 82.7948 72.4035 77.5702C72.3635 77.3428 72.1389 77.1972 71.9148 77.2347C71.7989 77.2567 71.7017 77.315 71.6374 77.4102C71.5732 77.5054 71.5505 77.6168 71.5639 77.7232C72.4781 82.8407 72.0807 89.4523 70.4775 95.8666C69.7862 98.6043 68.9119 101.213 67.8424 103.663C68.5321 101.517 69.0825 99.2291 69.4925 96.8145C70.5949 90.4161 70.6418 83.2439 69.6311 77.6073C69.5911 77.3799 69.3665 77.2343 69.1424 77.2718C69.0265 77.2938 68.9293 77.3521 68.865 77.4473C68.8008 77.5425 68.7715 77.6465 68.7915 77.7603C69.7812 83.2972 69.7351 90.3638 68.6533 96.6788C68.2196 99.2189 67.6257 101.61 66.8947 103.831C67.7156 100.889 68.2302 97.938 68.4289 95.0124C68.8178 89.2734 67.9787 83.6318 65.9866 78.7039C65.9029 78.4883 65.6533 78.3907 65.4402 78.471C65.3375 78.5078 65.2459 78.5875 65.2024 78.6908C65.159 78.7941 65.1505 78.9063 65.1924 79.0141C67.136 83.8268 67.9627 89.3481 67.5757 94.9675C67.3309 98.6018 66.5841 102.266 65.3594 105.926C65.8116 103.711 66.0681 101.535 66.1429 99.3067C66.3424 93.5225 65.3333 87.2946 63.0697 80.2824C63.0003 80.0675 62.767 79.9426 62.5407 80.0081C62.4315 80.0376 62.3398 80.1172 62.2963 80.2206C62.2387 80.3231 62.2302 80.4353 62.2721 80.5432C64.5069 87.4623 65.5016 93.598 65.3018 99.2906C65.2199 101.708 64.9294 103.862 64.5452 105.742C64.8147 102.729 64.6937 99.688 64.1856 96.6689C62.8259 88.6482 59.2997 83.8085 58.2407 82.5136C58.0893 82.3437 57.8355 82.3022 57.6456 82.4541C57.5616 82.5271 57.4973 82.6223 57.4889 82.7345C57.4804 82.8467 57.5081 82.9538 57.5794 83.0491C58.5989 84.2997 62.0285 89.0005 63.3461 96.8219C63.9697 100.488 63.9985 104.186 63.4376 107.846C63.1529 104.134 62.4816 100.628 61.4194 97.3823C59.9116 92.7545 57.6343 88.6776 54.6501 85.2676C54.4987 85.0977 54.2285 85.0835 54.0539 85.2222C53.9699 85.2952 53.9122 85.3978 53.9037 85.51C53.8953 85.6222 53.9295 85.7366 54.0019 85.8179C56.9137 89.1466 59.1339 93.129 60.6141 97.6497C61.8097 101.303 62.5021 105.29 62.6898 109.531C61.5553 105.824 60.2446 102.467 58.7753 99.5102C56.4625 94.8612 53.6992 91.0756 50.5417 88.262C50.3674 88.112 50.0951 88.1258 49.9468 88.294C49.8694 88.3744 49.8325 88.4852 49.8383 88.5981C49.844 88.7111 49.8935 88.8122 49.9736 88.8869C53.0435 91.6325 55.7419 95.3302 58.0118 99.8854C59.4569 102.785 60.7434 106.084 61.8613 109.727C61.0957 108.518 60.3949 107.397 59.7061 106.304L59.649 106.21C56.0941 100.517 53.5335 96.4109 47.7737 90.7073C47.7013 90.626 47.5831 90.5846 47.4759 90.586C47.3687 90.5874 47.2584 90.6309 47.1744 90.7039C47.0904 90.7769 47.0535 90.8876 47.045 90.9998C47.0366 91.1121 47.0861 91.2132 47.1651 91.3019C52.8722 96.9464 55.4131 101.03 58.9361 106.672L58.9756 106.717C59.7138 107.91 60.4718 109.126 61.3011 110.437C56.7917 106.806 53.0355 103.031 48.37 98.3428L48.3239 98.2911C46.9563 96.9236 45.5229 95.4822 43.9547 93.9351C43.788 93.7785 43.5244 93.7717 43.3553 93.9317C43.2713 94.0048 43.2279 94.1081 43.226 94.2277C43.2176 94.3399 43.2671 94.4411 43.3461 94.5297C44.9077 96.0694 46.3674 97.5403 47.768 98.9448C51.9892 103.18 55.4669 106.673 59.4286 109.993C46.114 102.427 41.3351 97.4444 41.2825 97.3853C41.1311 97.2154 40.8806 97.2233 40.6765 97.3745C40.5009 97.5272 40.5016 97.8018 40.6607 97.9651C40.8855 98.2023 46.2279 103.666 60.8728 111.766C55.9725 111.149 51.5762 110.094 47.7815 108.634C43.5083 106.987 40.1076 104.843 37.6681 102.257C37.5167 102.087 37.2455 102.087 37.0775 102.233C36.9018 102.386 36.896 102.653 37.0474 102.823C39.5735 105.491 43.0827 107.71 47.4665 109.406C50.7335 110.669 54.4372 111.632 58.5151 112.269C52.3133 112.442 47.1491 112.107 43.1275 111.29C38.3049 110.303 35.2894 108.638 34.1632 106.34C34.0642 106.137 33.8069 106.046 33.5994 106.148C33.4956 106.199 33.4182 106.279 33.3813 106.39C33.3444 106.501 33.3502 106.614 33.3997 106.715C34.6502 109.259 37.8609 111.083 42.9505 112.125C46.8943 112.931 51.8868 113.272 57.8569 113.142C52.1777 114.054 47.0956 114.526 42.7024 114.569C33.8733 114.654 30.6903 112.937 30.1457 112.585C29.9551 112.462 29.6873 112.511 29.5577 112.716C29.4292 112.906 29.4879 113.17 29.6785 113.292C30.5035 113.807 33.8603 115.491 42.7036 115.407C47.0968 115.364 52.1724 114.885 57.8286 113.993C52.3194 115.871 47.7852 117.125 43.7582 117.899C37.863 119.025 32.8433 119.141 28.4147 118.232C28.302 118.212 28.1861 118.234 28.0889 118.292C27.9983 118.358 27.9341 118.453 27.9048 118.557C27.8595 118.78 28.0077 118.992 28.2321 119.046C32.7734 119.975 37.9069 119.865 43.9113 118.71C48.1122 117.903 52.8223 116.588 58.6036 114.604C43.3944 123.21 28.0274 121.387 27.8579 121.364C27.7441 121.358 27.6348 121.387 27.5442 121.453C27.4602 121.526 27.3959 121.621 27.3875 121.733C27.363 121.964 27.5265 122.163 27.753 122.189C28.3963 122.272 42.4479 123.836 57.0433 116.366C42.446 125.948 27.743 125.737 27.066 125.723C26.9522 125.717 26.8266 125.773 26.7568 125.847C26.6728 125.92 26.6283 126.038 26.6275 126.143C26.6248 126.368 26.8102 126.561 27.0388 126.559C27.6305 126.569 38.7537 126.732 51.2924 120.605C50.3106 121.131 49.2949 121.633 48.2583 122.128C42.2705 124.96 35.4641 127.193 28.5711 128.583C28.4553 128.605 28.3581 128.663 28.3004 128.766C28.2361 128.861 28.2135 128.973 28.2335 129.086C28.2811 129.307 28.5057 129.453 28.7309 129.401C35.6818 128 42.5614 125.743 48.6158 122.879C51.5245 121.504 54.1617 120.038 56.5198 118.486C53.9618 120.513 51.0262 122.436 47.8407 124.169C41.5887 127.572 34.6824 130.088 27.8758 131.468C27.76 131.49 27.6694 131.556 27.6051 131.651C27.5408 131.746 27.5182 131.858 27.5458 131.965C27.5934 132.186 27.8181 132.331 28.0432 132.28C34.9362 130.89 41.9167 128.335 48.2572 124.895C52.0455 122.834 55.4831 120.502 58.3801 118.049C55.6039 121.078 52.3098 123.876 48.681 126.283C42.9867 130.053 36.6474 132.719 30.3414 133.992C30.2255 134.014 30.1349 134.08 30.0707 134.175C30.0064 134.27 29.9837 134.382 30.0114 134.489C30.059 134.709 30.277 134.848 30.5088 134.804C36.923 133.515 43.3661 130.798 49.1575 126.97C52.4927 124.766 55.5611 122.217 58.2024 119.462C55.8102 122.512 52.994 125.313 49.8935 127.72C44.6779 131.769 38.7873 134.542 32.8584 135.737C32.7425 135.759 32.6519 135.825 32.5877 135.92C32.5234 136.015 32.5007 136.126 32.5284 136.234C32.576 136.454 32.8006 136.6 33.0258 136.548C39.0781 135.325 45.0944 132.495 50.4158 128.367C54.229 125.407 57.6381 121.84 60.3562 117.97C60.0045 118.944 59.6823 119.906 59.3612 120.854C56.8486 128.255 54.4748 135.234 44.5015 137.244C44.3857 137.266 44.2951 137.332 44.2308 137.427C44.1666 137.522 44.1439 137.634 44.1715 137.741C44.2192 137.962 44.4438 138.107 44.6689 138.056C55.1209 135.944 57.5761 128.737 60.1701 121.108C61.0239 118.583 61.9048 115.982 63.1099 113.531C64.116 114.296 66.4868 116.561 69.6777 119.594C76.8109 126.398 88.7602 137.786 101.926 148.273C102.118 148.382 102.597 149.223 102.951 149.834L102.936 149.847Z" fill="#00A867" fill-opacity="0.3"/>
</svg>
