<svg width="62" height="76" viewBox="0 0 62 76" fill="none" xmlns="http://www.w3.org/2000/svg">
<path d="M10.6964 20.426H8.55462L12.8382 12.9987H0V11.1426H16.0485L10.6964 20.426ZM22.4714 7.42798H0V9.28467H19.2599L12.8376 20.426H14.9794L22.4714 7.42798ZM0 50.1231L1.60633 51.0514L13.6967 30.0772H11.5549L0 50.1231ZM0 35.2677L1.60633 36.196L5.13253 30.0784H2.99075L0 35.2677ZM0 57.5528L1.60633 58.4812L17.9778 30.0784H15.8361L0 57.5528ZM0 42.6957L1.60633 43.624L9.4143 30.0784H7.27252L0 42.6957ZM28.8938 3.71399H0V5.57068H25.6823L17.1193 20.426H19.2611L28.8938 3.71399ZM35.3167 0H0V1.8567H32.1052L21.4011 20.426H23.5429L35.3167 0ZM24.8345 30.0784H26.7556C27.3609 32.3864 27.6665 34.7631 27.6646 37.1494C27.6649 40.7882 26.9495 44.3913 25.5593 47.7531C24.1691 51.115 22.1314 54.1696 19.5625 56.7427C16.9936 59.3157 13.9438 61.3568 10.5872 62.7494C7.23066 64.1419 3.63312 64.8586 0 64.8586L0 63.0019C6.84592 63.0019 13.4115 60.2782 18.2523 55.4299C23.0931 50.5816 25.8126 44.0059 25.8126 37.1494C25.8143 34.7585 25.4852 32.3788 24.8345 30.0784ZM36.387 9.28289H60.855L61.9259 7.42619H35.3167L27.8235 20.426H29.9653L36.387 9.28289ZM29.5208 37.1494C29.5207 44.9908 26.4104 52.511 20.8742 58.0557C15.338 63.6004 7.82931 66.7153 0 66.7153L0 68.5726C4.12018 68.5726 8.20001 67.7598 12.0066 66.1807C15.8131 64.6015 19.2718 62.2869 22.1852 59.369C25.0986 56.4511 27.4097 52.987 28.9864 49.1746C30.5631 45.3621 31.3747 41.276 31.3747 37.1494C31.377 34.7699 31.1104 32.3978 30.5798 30.0784H28.6695C29.2363 32.3925 29.5222 34.7667 29.5208 37.1494ZM38.5276 12.9987H58.7139L59.7847 11.1414H37.4573L32.1029 20.426H34.2446L38.5276 12.9987ZM40.6694 16.7121H56.5733L57.6442 14.8554H39.5985L36.3858 20.426H38.5276L40.6694 16.7121ZM33.2297 37.15C33.2298 41.5205 32.3703 45.8483 30.7004 49.8861C29.0304 53.924 26.5828 57.5929 23.4971 60.6833C20.4114 63.7737 16.7481 66.2251 12.7165 67.8975C8.68485 69.57 4.36378 70.4307 0 70.4305L0 72.2878C4.60725 72.2878 9.16939 71.3789 13.4259 69.613C17.6825 67.8471 21.55 65.2589 24.8078 61.9959C28.0655 58.733 30.6497 54.8594 32.4127 50.5962C34.1757 46.333 35.0831 41.7638 35.0829 37.1494C35.0833 34.7743 34.8441 32.4053 34.369 30.0784H32.4759C32.9776 32.4018 33.2301 34.7723 33.2291 37.1494L33.2297 37.15ZM36.9373 37.15C36.9373 42.0081 35.9818 46.8186 34.1255 51.3069C32.2691 55.7952 29.5483 59.8733 26.1184 63.3085C22.6884 66.7436 18.6165 69.4685 14.1351 71.3275C9.65372 73.1866 4.8506 74.1434 0 74.1433L0 76C10.2877 76 20.1541 71.9069 27.4287 64.6211C34.7032 57.3353 38.79 47.4537 38.79 37.15C38.7906 34.7783 38.5756 32.4115 38.1474 30.079H36.2621C36.7116 32.4088 36.9375 34.7764 36.9367 37.1494L36.9373 37.15ZM54.4321 20.426L55.503 18.5693H41.7391L40.6682 20.426H54.4321Z" fill="black"/>
<path d="M40.1579 22.3096H53.3655V23.6091H51.0108V28.2479H48.4139V23.6073H42.753V24.7723H45.6087V26.0718H42.753V28.2461H40.1579V22.3096ZM34.5857 26.9573V25.9276H37.9721V24.6269H34.5845V23.6073H38.9341V22.3096H31.9882V28.2479H38.9877V26.9573H34.5857ZM28.8023 22.3096V25.2781L24.6485 22.3096H22.6328V28.2479H24.4105V24.9784L28.6756 28.2461H30.5794V22.3096H28.8023Z" fill="#44B17B"/>
<path d="M7.19875 22.2852H0V23.5853H2.29944V28.2241H4.89634V23.5829H7.19875V22.2852ZM9.16205 25.9735H11.5138L10.3638 23.6729L9.16205 25.9711V25.9735ZM12.323 22.2852L15.566 28.2241H12.69L12.1588 27.2046H8.51892L7.98348 28.2241H6.29861L9.53983 22.2852H12.323ZM21.7509 22.2852H14.7057V23.5853H17.0051V28.2241H19.602V23.5829H21.7509V22.2852Z" fill="#E73439"/>
</svg>
